<svg xmlns="http://www.w3.org/2000/svg" xmlns:xlink="http://www.w3.org/1999/xlink" width="1080" zoomAndPan="magnify" viewBox="0 0 810 809.999993" height="1080" preserveAspectRatio="xMidYMid meet" version="1.0"><path fill="#ffffff" d="M 128.621094 222.46875 L 530.691406 219.671875 C 531.425781 219.472656 532.136719 219.214844 532.832031 218.898438 C 533.523438 218.582031 534.183594 218.214844 534.816406 217.789062 C 535.449219 217.363281 536.042969 216.890625 536.597656 216.367188 C 537.152344 215.847656 537.660156 215.285156 538.121094 214.679688 C 538.585938 214.074219 538.996094 213.4375 539.351562 212.765625 C 539.710938 212.09375 540.011719 211.394531 540.253906 210.675781 C 540.5 209.953125 540.683594 209.21875 540.808594 208.464844 C 540.929688 207.714844 540.992188 206.957031 540.992188 206.195312 C 540.992188 205.4375 540.929688 204.679688 540.808594 203.929688 C 540.683594 203.175781 540.5 202.441406 540.253906 201.71875 C 540.011719 201 539.710938 200.300781 539.351562 199.628906 C 538.996094 198.957031 538.585938 198.320312 538.121094 197.714844 C 537.660156 197.109375 537.152344 196.546875 536.597656 196.023438 C 536.042969 195.503906 535.449219 195.03125 534.816406 194.605469 C 534.183594 194.179688 533.523438 193.8125 532.832031 193.496094 C 532.136719 193.179688 531.425781 192.921875 530.691406 192.71875 L 128.484375 196.210938 C 127.964844 196.070312 127.445312 195.960938 126.914062 195.882812 C 126.386719 195.800781 125.855469 195.75 125.320312 195.730469 C 124.785156 195.710938 124.253906 195.722656 123.71875 195.765625 C 123.1875 195.808594 122.65625 195.882812 122.132812 195.984375 C 121.609375 196.085938 121.089844 196.21875 120.582031 196.382812 C 120.070312 196.542969 119.574219 196.734375 119.085938 196.953125 C 118.597656 197.175781 118.125 197.421875 117.664062 197.695312 C 117.207031 197.96875 116.761719 198.269531 116.339844 198.59375 C 115.914062 198.917969 115.507812 199.265625 115.125 199.636719 C 114.738281 200.007812 114.375 200.402344 114.035156 200.8125 C 113.695312 201.226562 113.382812 201.660156 113.089844 202.109375 C 112.800781 202.558594 112.539062 203.019531 112.300781 203.5 C 112.0625 203.980469 111.855469 204.472656 111.675781 204.976562 C 111.492188 205.476562 111.34375 205.992188 111.222656 206.511719 C 111.097656 207.03125 111.007812 207.558594 110.945312 208.089844 C 110.886719 208.621094 110.855469 209.152344 110.855469 209.6875 C 110.855469 210.222656 110.886719 210.757812 110.945312 211.289062 C 111.007812 211.820312 111.097656 212.34375 111.222656 212.867188 C 111.34375 213.386719 111.492188 213.898438 111.675781 214.402344 C 111.855469 214.90625 112.0625 215.398438 112.300781 215.875 C 112.539062 216.355469 112.800781 216.820312 113.089844 217.269531 C 113.382812 217.71875 113.695312 218.148438 114.035156 218.5625 C 114.375 218.976562 114.738281 219.367188 115.125 219.738281 C 115.507812 220.109375 115.914062 220.457031 116.339844 220.78125 C 116.761719 221.109375 117.207031 221.40625 117.664062 221.679688 C 118.125 221.957031 118.597656 222.203125 119.085938 222.421875 C 119.574219 222.640625 120.070312 222.832031 120.582031 222.996094 C 121.089844 223.15625 121.609375 223.289062 122.132812 223.394531 C 122.65625 223.496094 123.1875 223.566406 123.71875 223.609375 C 124.253906 223.652344 124.785156 223.664062 125.320312 223.644531 C 125.855469 223.625 126.386719 223.574219 126.914062 223.496094 C 127.445312 223.414062 127.964844 223.304688 128.484375 223.164062 Z M 128.621094 222.46875 " fill-opacity="1" fill-rule="nonzero"/><path fill="#ffffff" d="M 128.621094 349.832031 L 530.691406 346.761719 C 531.425781 346.558594 532.136719 346.300781 532.832031 345.984375 C 533.523438 345.667969 534.183594 345.300781 534.816406 344.875 C 535.449219 344.449219 536.042969 343.976562 536.597656 343.453125 C 537.152344 342.933594 537.660156 342.371094 538.121094 341.765625 C 538.585938 341.160156 538.996094 340.523438 539.351562 339.851562 C 539.710938 339.179688 540.011719 338.480469 540.253906 337.761719 C 540.5 337.039062 540.683594 336.304688 540.808594 335.550781 C 540.929688 334.800781 540.992188 334.042969 540.992188 333.285156 C 540.992188 332.523438 540.929688 331.765625 540.808594 331.015625 C 540.683594 330.261719 540.5 329.527344 540.253906 328.804688 C 540.011719 328.085938 539.710938 327.386719 539.351562 326.714844 C 538.996094 326.042969 538.585938 325.40625 538.121094 324.800781 C 537.660156 324.195312 537.152344 323.632812 536.597656 323.113281 C 536.042969 322.589844 535.449219 322.117188 534.816406 321.691406 C 534.183594 321.265625 533.523438 320.898438 532.832031 320.582031 C 532.136719 320.265625 531.425781 320.007812 530.691406 319.804688 L 128.203125 322.597656 C 127.46875 322.800781 126.753906 323.058594 126.0625 323.375 C 125.371094 323.691406 124.707031 324.058594 124.074219 324.484375 C 123.445312 324.910156 122.851562 325.382812 122.296875 325.90625 C 121.742188 326.425781 121.234375 326.988281 120.769531 327.59375 C 120.308594 328.199219 119.898438 328.835938 119.539062 329.507812 C 119.183594 330.179688 118.882812 330.878906 118.636719 331.597656 C 118.394531 332.320312 118.210938 333.054688 118.085938 333.808594 C 117.960938 334.558594 117.898438 335.316406 117.898438 336.078125 C 117.898438 336.835938 117.960938 337.59375 118.085938 338.34375 C 118.210938 339.097656 118.394531 339.832031 118.636719 340.554688 C 118.882812 341.273438 119.183594 341.972656 119.539062 342.644531 C 119.898438 343.316406 120.308594 343.953125 120.769531 344.558594 C 121.234375 345.164062 121.742188 345.726562 122.296875 346.25 C 122.851562 346.769531 123.445312 347.242188 124.074219 347.667969 C 124.707031 348.09375 125.371094 348.460938 126.0625 348.777344 C 126.753906 349.09375 127.46875 349.351562 128.203125 349.554688 Z M 128.621094 349.832031 " fill-opacity="1" fill-rule="nonzero"/><path fill="#ffffff" d="M 742.6875 186.4375 L 658.894531 186.4375 L 658.894531 111.582031 C 658.890625 110.480469 658.863281 109.382812 658.804688 108.285156 C 658.75 107.1875 658.667969 106.09375 658.558594 105 C 658.449219 103.90625 658.3125 102.816406 658.148438 101.730469 C 657.984375 100.644531 657.796875 99.5625 657.578125 98.484375 C 657.363281 97.40625 657.121094 96.335938 656.851562 95.269531 C 656.585938 94.207031 656.289062 93.148438 655.96875 92.097656 C 655.648438 91.046875 655.304688 90.003906 654.933594 88.96875 C 654.558594 87.933594 654.164062 86.910156 653.742188 85.894531 C 653.320312 84.882812 652.875 83.878906 652.402344 82.882812 C 651.933594 81.890625 651.4375 80.910156 650.921875 79.941406 C 650.402344 78.972656 649.859375 78.019531 649.292969 77.078125 C 648.730469 76.132812 648.140625 75.207031 647.53125 74.292969 C 646.917969 73.378906 646.285156 72.484375 645.628906 71.601562 C 644.976562 70.71875 644.300781 69.851562 643.601562 69.003906 C 642.90625 68.152344 642.1875 67.324219 641.449219 66.507812 C 640.710938 65.695312 639.953125 64.898438 639.175781 64.121094 C 638.402344 63.34375 637.605469 62.585938 636.792969 61.851562 C 635.976562 61.113281 635.144531 60.394531 634.296875 59.695312 C 633.445312 59 632.582031 58.324219 631.699219 57.667969 C 630.816406 57.015625 629.917969 56.382812 629.007812 55.769531 C 628.09375 55.160156 627.164062 54.570312 626.222656 54.003906 C 625.28125 53.441406 624.324219 52.898438 623.355469 52.378906 C 622.386719 51.859375 621.40625 51.367188 620.414062 50.894531 C 619.421875 50.425781 618.417969 49.980469 617.402344 49.558594 C 616.390625 49.136719 615.363281 48.738281 614.332031 48.367188 C 613.296875 47.996094 612.253906 47.652344 611.203125 47.332031 C 610.152344 47.011719 609.09375 46.714844 608.027344 46.445312 C 606.964844 46.179688 605.890625 45.9375 604.8125 45.71875 C 603.738281 45.503906 602.65625 45.316406 601.570312 45.152344 C 600.480469 44.988281 599.390625 44.851562 598.296875 44.742188 C 597.207031 44.632812 596.109375 44.550781 595.011719 44.492188 C 593.914062 44.4375 592.816406 44.410156 591.71875 44.40625 L 67.175781 44.40625 C 66.074219 44.410156 64.976562 44.4375 63.878906 44.492188 C 62.78125 44.550781 61.6875 44.632812 60.59375 44.742188 C 59.5 44.851562 58.410156 44.988281 57.324219 45.152344 C 56.238281 45.316406 55.15625 45.503906 54.078125 45.71875 C 53 45.9375 51.929688 46.179688 50.863281 46.445312 C 49.800781 46.714844 48.742188 47.011719 47.691406 47.332031 C 46.640625 47.652344 45.597656 47.996094 44.5625 48.367188 C 43.527344 48.738281 42.503906 49.136719 41.488281 49.558594 C 40.476562 49.980469 39.472656 50.425781 38.476562 50.894531 C 37.484375 51.367188 36.503906 51.859375 35.535156 52.378906 C 34.566406 52.898438 33.613281 53.441406 32.671875 54.003906 C 31.726562 54.570312 30.800781 55.160156 29.886719 55.769531 C 28.972656 56.382812 28.074219 57.015625 27.195312 57.667969 C 26.3125 58.324219 25.445312 59 24.597656 59.695312 C 23.746094 60.394531 22.917969 61.113281 22.101562 61.851562 C 21.289062 62.585938 20.492188 63.34375 19.714844 64.121094 C 18.9375 64.898438 18.179688 65.695312 17.441406 66.507812 C 16.707031 67.324219 15.988281 68.152344 15.289062 69.003906 C 14.59375 69.851562 13.917969 70.71875 13.261719 71.601562 C 12.609375 72.484375 11.972656 73.378906 11.363281 74.292969 C 10.753906 75.207031 10.164062 76.132812 9.597656 77.078125 C 9.035156 78.019531 8.492188 78.972656 7.972656 79.941406 C 7.453125 80.910156 6.960938 81.890625 6.488281 82.882812 C 6.019531 83.878906 5.570312 84.882812 5.152344 85.894531 C 4.730469 86.910156 4.332031 87.933594 3.960938 88.96875 C 3.589844 90.003906 3.242188 91.046875 2.921875 92.097656 C 2.601562 93.148438 2.308594 94.207031 2.039062 95.269531 C 1.773438 96.335938 1.53125 97.40625 1.3125 98.484375 C 1.097656 99.5625 0.910156 100.644531 0.746094 101.730469 C 0.582031 102.816406 0.445312 103.90625 0.335938 105 C 0.226562 106.09375 0.144531 107.1875 0.0859375 108.285156 C 0.03125 109.382812 0.00390625 110.480469 0 111.582031 L 0 425.945312 C 0.00390625 427.832031 0.0859375 429.714844 0.25 431.59375 C 0.410156 433.476562 0.652344 435.347656 0.972656 437.207031 C 1.292969 439.066406 1.6875 440.910156 2.164062 442.734375 C 2.636719 444.5625 3.1875 446.367188 3.8125 448.144531 C 4.441406 449.925781 5.140625 451.675781 5.914062 453.398438 C 6.6875 455.121094 7.53125 456.804688 8.445312 458.457031 C 9.363281 460.105469 10.34375 461.714844 11.394531 463.28125 C 12.445312 464.851562 13.5625 466.371094 14.738281 467.84375 C 15.917969 469.320312 17.15625 470.742188 18.453125 472.109375 C 19.753906 473.480469 21.105469 474.792969 22.515625 476.050781 C 23.921875 477.304688 25.382812 478.5 26.890625 479.632812 C 28.398438 480.765625 29.953125 481.835938 31.550781 482.835938 C 33.152344 483.839844 34.789062 484.773438 36.46875 485.636719 C 38.144531 486.503906 39.855469 487.296875 41.597656 488.015625 C 43.34375 488.738281 45.113281 489.382812 46.914062 489.957031 C 48.710938 490.527344 50.53125 491.023438 52.371094 491.441406 L 40.5 610.011719 C 40.398438 611.316406 40.476562 612.609375 40.738281 613.890625 C 41 615.171875 41.433594 616.394531 42.039062 617.554688 C 42.644531 618.714844 43.398438 619.769531 44.296875 620.71875 C 45.199219 621.667969 46.214844 622.472656 47.34375 623.136719 C 49.40625 624.378906 51.640625 624.984375 54.046875 624.953125 C 55.476562 624.929688 56.871094 624.691406 58.230469 624.238281 C 59.589844 623.785156 60.847656 623.140625 62.007812 622.300781 L 150.410156 556.800781 L 150.410156 568.253906 C 150.410156 569.347656 150.441406 570.445312 150.496094 571.539062 C 150.550781 572.632812 150.632812 573.722656 150.746094 574.8125 C 150.855469 575.90625 150.988281 576.992188 151.152344 578.074219 C 151.316406 579.15625 151.503906 580.238281 151.71875 581.3125 C 151.9375 582.386719 152.179688 583.453125 152.445312 584.515625 C 152.714844 585.578125 153.007812 586.632812 153.328125 587.679688 C 153.648438 588.730469 153.992188 589.769531 154.363281 590.800781 C 154.734375 591.832031 155.128906 592.851562 155.550781 593.863281 C 155.972656 594.875 156.417969 595.875 156.886719 596.863281 C 157.355469 597.855469 157.851562 598.832031 158.367188 599.796875 C 158.886719 600.761719 159.429688 601.714844 159.992188 602.65625 C 160.558594 603.59375 161.144531 604.519531 161.753906 605.429688 C 162.363281 606.339844 162.996094 607.234375 163.648438 608.113281 C 164.304688 608.992188 164.976562 609.855469 165.675781 610.699219 C 166.371094 611.546875 167.085938 612.375 167.824219 613.1875 C 168.558594 613.996094 169.316406 614.789062 170.09375 615.5625 C 170.867188 616.335938 171.660156 617.089844 172.472656 617.828125 C 173.285156 618.5625 174.117188 619.277344 174.964844 619.96875 C 175.8125 620.664062 176.675781 621.339844 177.554688 621.988281 C 178.4375 622.640625 179.332031 623.273438 180.246094 623.878906 C 181.15625 624.488281 182.082031 625.074219 183.023438 625.636719 C 183.960938 626.199219 184.914062 626.738281 185.882812 627.253906 C 186.847656 627.769531 187.828125 628.261719 188.816406 628.730469 C 189.808594 629.195312 190.808594 629.640625 191.824219 630.058594 C 192.835938 630.476562 193.855469 630.871094 194.886719 631.238281 C 195.921875 631.609375 196.960938 631.953125 198.007812 632.269531 C 199.058594 632.585938 200.113281 632.878906 201.175781 633.144531 C 202.238281 633.410156 203.308594 633.648438 204.382812 633.863281 C 205.457031 634.078125 206.535156 634.265625 207.621094 634.425781 C 208.703125 634.585938 209.789062 634.71875 210.882812 634.824219 C 211.972656 634.933594 213.0625 635.011719 214.15625 635.066406 C 215.253906 635.121094 216.347656 635.148438 217.441406 635.148438 L 573.5625 635.148438 L 747.851562 764.328125 C 749.019531 765.210938 750.292969 765.875 751.683594 766.332031 C 753.070312 766.785156 754.492188 767.003906 755.953125 766.980469 C 758.316406 767.007812 760.503906 766.402344 762.515625 765.167969 C 763.667969 764.546875 764.707031 763.773438 765.628906 762.847656 C 766.550781 761.917969 767.3125 760.875 767.925781 759.71875 C 768.535156 758.5625 768.960938 757.339844 769.207031 756.054688 C 769.449219 754.773438 769.5 753.480469 769.359375 752.179688 L 757.488281 633.613281 C 759.332031 633.199219 761.152344 632.710938 762.953125 632.144531 C 764.753906 631.578125 766.527344 630.941406 768.273438 630.226562 C 770.019531 629.507812 771.734375 628.722656 773.414062 627.863281 C 775.09375 627.003906 776.734375 626.074219 778.339844 625.078125 C 779.941406 624.078125 781.496094 623.015625 783.011719 621.886719 C 784.523438 620.757812 785.984375 619.566406 787.398438 618.316406 C 788.808594 617.0625 790.164062 615.753906 791.46875 614.386719 C 792.769531 613.019531 794.011719 611.601562 795.191406 610.128906 C 796.375 608.660156 797.492188 607.140625 798.546875 605.574219 C 799.601562 604.007812 800.585938 602.402344 801.507812 600.753906 C 802.425781 599.105469 803.273438 597.421875 804.050781 595.699219 C 804.824219 593.980469 805.527344 592.230469 806.15625 590.449219 C 806.785156 588.671875 807.339844 586.867188 807.816406 585.042969 C 808.292969 583.214844 808.695312 581.375 809.015625 579.515625 C 809.339844 577.65625 809.582031 575.785156 809.746094 573.902344 C 809.910156 572.023438 809.996094 570.140625 810 568.253906 L 810 253.75 C 810 252.648438 809.972656 251.546875 809.917969 250.445312 C 809.863281 249.347656 809.785156 248.25 809.675781 247.152344 C 809.566406 246.054688 809.433594 244.960938 809.269531 243.871094 C 809.109375 242.78125 808.921875 241.699219 808.707031 240.617188 C 808.492188 239.535156 808.25 238.460938 807.984375 237.394531 C 807.714844 236.324219 807.421875 235.261719 807.101562 234.210938 C 806.78125 233.15625 806.4375 232.109375 806.066406 231.070312 C 805.695312 230.035156 805.296875 229.007812 804.875 227.988281 C 804.453125 226.972656 804.007812 225.964844 803.535156 224.96875 C 803.066406 223.972656 802.570312 222.988281 802.050781 222.019531 C 801.53125 221.046875 800.988281 220.089844 800.421875 219.144531 C 799.855469 218.199219 799.265625 217.269531 798.65625 216.351562 C 798.042969 215.4375 797.410156 214.535156 796.753906 213.652344 C 796.097656 212.765625 795.417969 211.898438 794.71875 211.046875 C 794.019531 210.195312 793.300781 209.359375 792.5625 208.542969 C 791.824219 207.726562 791.0625 206.929688 790.285156 206.152344 C 789.503906 205.371094 788.707031 204.613281 787.890625 203.875 C 787.074219 203.132812 786.242188 202.414062 785.390625 201.714844 C 784.539062 201.015625 783.667969 200.339844 782.785156 199.683594 C 781.898438 199.027344 781 198.390625 780.082031 197.78125 C 779.167969 197.167969 778.238281 196.578125 777.292969 196.011719 C 776.347656 195.445312 775.390625 194.902344 774.417969 194.382812 C 773.445312 193.863281 772.460938 193.371094 771.464844 192.898438 C 770.46875 192.425781 769.464844 191.980469 768.445312 191.558594 C 767.429688 191.136719 766.402344 190.742188 765.363281 190.371094 C 764.324219 190 763.28125 189.652344 762.226562 189.335938 C 761.171875 189.015625 760.109375 188.722656 759.042969 188.453125 C 757.972656 188.183594 756.898438 187.945312 755.820312 187.730469 C 754.738281 187.515625 753.652344 187.324219 752.5625 187.164062 C 751.472656 187.003906 750.378906 186.867188 749.285156 186.761719 C 748.1875 186.652344 747.089844 186.570312 745.988281 186.515625 C 744.890625 186.460938 743.789062 186.4375 742.6875 186.4375 Z M 77.230469 470.632812 C 75.929688 469.234375 74.40625 468.144531 72.660156 467.367188 C 70.914062 466.589844 69.085938 466.191406 67.175781 466.164062 C 65.855469 466.164062 64.542969 466.101562 63.230469 465.972656 C 61.921875 465.84375 60.621094 465.648438 59.328125 465.390625 C 58.035156 465.136719 56.757812 464.816406 55.5 464.433594 C 54.238281 464.050781 53 463.609375 51.78125 463.101562 C 50.566406 462.597656 49.375 462.035156 48.214844 461.414062 C 47.050781 460.792969 45.925781 460.117188 44.828125 459.386719 C 43.734375 458.65625 42.675781 457.871094 41.660156 457.035156 C 40.640625 456.199219 39.664062 455.316406 38.734375 454.382812 C 37.800781 453.453125 36.917969 452.476562 36.082031 451.460938 C 35.246094 450.441406 34.464844 449.386719 33.730469 448.289062 C 33 447.195312 32.324219 446.066406 31.703125 444.902344 C 31.082031 443.742188 30.519531 442.554688 30.015625 441.335938 C 29.511719 440.121094 29.066406 438.878906 28.683594 437.621094 C 28.304688 436.359375 27.984375 435.082031 27.726562 433.789062 C 27.46875 432.5 27.277344 431.199219 27.148438 429.886719 C 27.019531 428.574219 26.953125 427.261719 26.953125 425.945312 L 26.953125 111.582031 C 26.953125 110.261719 27.019531 108.949219 27.148438 107.636719 C 27.277344 106.328125 27.46875 105.027344 27.726562 103.734375 C 27.984375 102.441406 28.304688 101.164062 28.683594 99.90625 C 29.066406 98.644531 29.511719 97.40625 30.015625 96.1875 C 30.519531 94.972656 31.082031 93.78125 31.703125 92.621094 C 32.324219 91.460938 33 90.332031 33.730469 89.234375 C 34.464844 88.140625 35.246094 87.082031 36.082031 86.066406 C 36.917969 85.046875 37.800781 84.070312 38.734375 83.140625 C 39.664062 82.207031 40.640625 81.324219 41.660156 80.488281 C 42.675781 79.652344 43.734375 78.871094 44.828125 78.136719 C 45.925781 77.40625 47.050781 76.730469 48.214844 76.109375 C 49.375 75.488281 50.566406 74.925781 51.78125 74.421875 C 53 73.917969 54.238281 73.472656 55.5 73.09375 C 56.757812 72.710938 58.035156 72.390625 59.328125 72.132812 C 60.621094 71.875 61.921875 71.683594 63.230469 71.554688 C 64.542969 71.425781 65.855469 71.359375 67.175781 71.359375 L 592.417969 71.359375 C 593.734375 71.359375 595.046875 71.425781 596.359375 71.554688 C 597.671875 71.683594 598.972656 71.875 600.265625 72.132812 C 601.554688 72.390625 602.832031 72.710938 604.09375 73.09375 C 605.351562 73.472656 606.59375 73.917969 607.808594 74.421875 C 609.027344 74.925781 610.214844 75.488281 611.378906 76.109375 C 612.539062 76.730469 613.667969 77.40625 614.761719 78.136719 C 615.859375 78.871094 616.914062 79.652344 617.933594 80.488281 C 618.949219 81.324219 619.925781 82.207031 620.859375 83.140625 C 621.789062 84.070312 622.671875 85.046875 623.507812 86.066406 C 624.34375 87.082031 625.128906 88.140625 625.859375 89.234375 C 626.589844 90.332031 627.269531 91.460938 627.886719 92.621094 C 628.507812 93.78125 629.070312 94.972656 629.574219 96.1875 C 630.082031 97.40625 630.523438 98.644531 630.90625 99.90625 C 631.289062 101.164062 631.609375 102.441406 631.863281 103.734375 C 632.121094 105.027344 632.316406 106.328125 632.445312 107.636719 C 632.574219 108.949219 632.636719 110.261719 632.636719 111.582031 L 632.636719 425.945312 C 632.636719 427.261719 632.574219 428.574219 632.445312 429.886719 C 632.316406 431.199219 632.121094 432.5 631.863281 433.789062 C 631.609375 435.082031 631.289062 436.359375 630.90625 437.621094 C 630.523438 438.878906 630.082031 440.121094 629.574219 441.335938 C 629.070312 442.554688 628.507812 443.742188 627.886719 444.902344 C 627.269531 446.066406 626.589844 447.195312 625.859375 448.289062 C 625.128906 449.386719 624.34375 450.441406 623.507812 451.460938 C 622.671875 452.476562 621.789062 453.453125 620.859375 454.382812 C 619.925781 455.316406 618.949219 456.199219 617.933594 457.035156 C 616.914062 457.871094 615.859375 458.65625 614.761719 459.386719 C 613.667969 460.117188 612.539062 460.792969 611.378906 461.414062 C 610.214844 462.035156 609.027344 462.597656 607.808594 463.101562 C 606.59375 463.609375 605.351562 464.050781 604.09375 464.433594 C 602.832031 464.816406 601.554688 465.136719 600.265625 465.390625 C 598.972656 465.648438 597.671875 465.84375 596.359375 465.972656 C 595.046875 466.101562 593.734375 466.164062 592.417969 466.164062 L 231.828125 466.164062 C 230.390625 466.15625 228.992188 466.375 227.628906 466.832031 C 226.265625 467.285156 225.011719 467.949219 223.867188 468.820312 L 69.828125 582.359375 L 80.023438 480.96875 C 80.261719 479.128906 80.140625 477.3125 79.65625 475.523438 C 79.171875 473.730469 78.363281 472.101562 77.230469 470.632812 Z M 783.046875 568.394531 C 783.03125 569.707031 782.957031 571.015625 782.8125 572.320312 C 782.671875 573.625 782.46875 574.921875 782.199219 576.207031 C 781.933594 577.492188 781.601562 578.761719 781.210938 580.015625 C 780.820312 581.269531 780.367188 582.5 779.855469 583.710938 C 779.34375 584.917969 778.773438 586.101562 778.144531 587.253906 C 777.519531 588.40625 776.835938 589.527344 776.101562 590.613281 C 775.363281 591.703125 774.574219 592.75 773.738281 593.761719 C 772.898438 594.769531 772.011719 595.738281 771.078125 596.660156 C 770.144531 597.585938 769.167969 598.460938 768.148438 599.289062 C 767.128906 600.117188 766.074219 600.894531 764.980469 601.621094 C 763.882812 602.34375 762.757812 603.015625 761.597656 603.628906 C 760.4375 604.246094 759.25 604.804688 758.035156 605.300781 C 756.820312 605.800781 755.585938 606.242188 754.328125 606.621094 C 753.070312 607 751.796875 607.316406 750.507812 607.570312 C 749.21875 607.824219 747.921875 608.015625 746.617188 608.140625 C 745.308594 608.269531 744 608.335938 742.6875 608.335938 C 740.800781 608.378906 738.996094 608.789062 737.277344 609.5625 C 735.554688 610.339844 734.054688 611.417969 732.769531 612.804688 C 732.117188 613.484375 731.546875 614.226562 731.058594 615.03125 C 730.570312 615.839844 730.175781 616.6875 729.875 617.582031 C 729.570312 618.472656 729.371094 619.390625 729.269531 620.328125 C 729.171875 621.265625 729.171875 622.199219 729.277344 623.136719 L 740.171875 724.527344 L 586.550781 610.847656 C 585.390625 610.007812 584.132812 609.363281 582.777344 608.910156 C 581.417969 608.457031 580.023438 608.21875 578.589844 608.195312 L 217.441406 608.195312 C 216.132812 608.195312 214.828125 608.128906 213.523438 608.003906 C 212.21875 607.875 210.925781 607.683594 209.640625 607.425781 C 208.355469 607.171875 207.085938 606.855469 205.832031 606.476562 C 204.578125 606.097656 203.347656 605.65625 202.136719 605.15625 C 200.925781 604.65625 199.742188 604.097656 198.585938 603.480469 C 197.429688 602.867188 196.308594 602.195312 195.21875 601.46875 C 194.128906 600.742188 193.078125 599.964844 192.0625 599.136719 C 191.050781 598.304688 190.078125 597.429688 189.152344 596.503906 C 188.222656 595.578125 187.34375 594.613281 186.507812 593.601562 C 185.675781 592.589844 184.894531 591.542969 184.164062 590.453125 C 183.433594 589.367188 182.761719 588.246094 182.140625 587.09375 C 181.519531 585.9375 180.957031 584.757812 180.453125 583.546875 C 179.949219 582.339844 179.503906 581.109375 179.121094 579.855469 C 178.738281 578.605469 178.414062 577.335938 178.15625 576.050781 C 177.898438 574.769531 177.699219 573.476562 177.566406 572.171875 C 177.433594 570.871094 177.367188 569.5625 177.363281 568.253906 L 177.363281 536.832031 L 236.296875 493.117188 L 592.417969 493.117188 C 593.515625 493.117188 594.613281 493.085938 595.710938 493.03125 C 596.808594 492.976562 597.902344 492.890625 598.996094 492.78125 C 600.089844 492.671875 601.179688 492.535156 602.265625 492.375 C 603.351562 492.210938 604.433594 492.019531 605.511719 491.804688 C 606.589844 491.589844 607.660156 491.347656 608.726562 491.078125 C 609.792969 490.808594 610.851562 490.515625 611.902344 490.195312 C 612.953125 489.875 613.996094 489.527344 615.027344 489.15625 C 616.0625 488.785156 617.085938 488.390625 618.101562 487.96875 C 619.117188 487.546875 620.121094 487.101562 621.113281 486.628906 C 622.105469 486.160156 623.085938 485.664062 624.054688 485.144531 C 625.023438 484.625 625.980469 484.085938 626.921875 483.519531 C 627.863281 482.953125 628.792969 482.367188 629.703125 481.753906 C 630.617188 481.144531 631.515625 480.511719 632.398438 479.855469 C 633.28125 479.203125 634.144531 478.523438 634.996094 477.828125 C 635.84375 477.128906 636.675781 476.414062 637.488281 475.675781 C 638.304688 474.9375 639.097656 474.179688 639.875 473.402344 C 640.652344 472.625 641.410156 471.832031 642.148438 471.015625 C 642.886719 470.203125 643.605469 469.371094 644.300781 468.523438 C 645 467.671875 645.675781 466.808594 646.328125 465.925781 C 646.984375 465.042969 647.617188 464.144531 648.226562 463.230469 C 648.839844 462.316406 649.425781 461.390625 649.992188 460.449219 C 650.558594 459.507812 651.101562 458.550781 651.617188 457.582031 C 652.136719 456.613281 652.632812 455.632812 653.101562 454.640625 C 653.574219 453.648438 654.019531 452.644531 654.441406 451.628906 C 654.863281 450.613281 655.257812 449.589844 655.628906 448.554688 C 656 447.523438 656.347656 446.480469 656.667969 445.429688 C 656.988281 444.378906 657.28125 443.320312 657.550781 442.253906 C 657.820312 441.1875 658.0625 440.117188 658.277344 439.039062 C 658.492188 437.960938 658.683594 436.878906 658.847656 435.792969 C 659.007812 434.707031 659.144531 433.617188 659.253906 432.523438 C 659.363281 431.429688 659.449219 430.335938 659.503906 429.238281 C 659.558594 428.140625 659.589844 427.042969 659.589844 425.945312 L 659.589844 213.527344 L 743.382812 213.527344 C 744.703125 213.527344 746.019531 213.59375 747.332031 213.722656 C 748.644531 213.851562 749.949219 214.042969 751.242188 214.300781 C 752.535156 214.558594 753.8125 214.878906 755.074219 215.257812 C 756.335938 215.640625 757.578125 216.085938 758.796875 216.585938 C 760.015625 217.089844 761.207031 217.652344 762.371094 218.273438 C 763.535156 218.894531 764.667969 219.570312 765.765625 220.300781 C 766.863281 221.03125 767.921875 221.816406 768.941406 222.652344 C 769.960938 223.488281 770.941406 224.371094 771.875 225.300781 C 772.808594 226.230469 773.695312 227.207031 774.535156 228.222656 C 775.371094 229.242188 776.160156 230.296875 776.894531 231.394531 C 777.628906 232.488281 778.308594 233.617188 778.933594 234.777344 C 779.558594 235.941406 780.125 237.128906 780.632812 238.347656 C 781.140625 239.5625 781.585938 240.804688 781.972656 242.066406 C 782.359375 243.324219 782.683594 244.601562 782.945312 245.894531 C 783.207031 247.1875 783.402344 248.492188 783.539062 249.804688 C 783.671875 251.113281 783.738281 252.429688 783.746094 253.75 Z M 783.046875 568.394531 " fill-opacity="1" fill-rule="nonzero"/></svg>