<svg xmlns="http://www.w3.org/2000/svg" xmlns:xlink="http://www.w3.org/1999/xlink" width="1080" zoomAndPan="magnify" viewBox="0 0 810 809.999993" height="1080" preserveAspectRatio="xMidYMid meet" version="1.0"><defs><clipPath id="9c11f43686"><path d="M 170 18.730469 L 712 18.730469 L 712 791 L 170 791 Z M 170 18.730469 " clip-rule="nonzero"/></clipPath><clipPath id="a20ff62da7"><path d="M 635 18.730469 L 810 18.730469 L 810 146 L 635 146 Z M 635 18.730469 " clip-rule="nonzero"/></clipPath><clipPath id="afff3695f7"><path d="M 72 630 L 547 630 L 547 791.230469 L 72 791.230469 Z M 72 630 " clip-rule="nonzero"/></clipPath></defs><g clip-path="url(#9c11f43686)"><path fill="#ffffff" d="M 530.910156 790.316406 C 523.796875 790.316406 517.632812 785.101562 516.683594 777.511719 C 516.207031 769.925781 521.898438 762.8125 529.488281 761.863281 C 589.714844 755.699219 635.242188 704.953125 635.242188 644.253906 L 635.242188 131.601562 C 635.242188 123.539062 641.40625 117.371094 649.46875 117.371094 C 657.058594 117.371094 663.695312 123.539062 663.695312 131.601562 L 663.695312 644.253906 C 663.695312 719.183594 607.261719 782.253906 532.332031 790.316406 C 531.859375 790.316406 531.382812 790.316406 530.910156 790.316406 Z M 184.242188 658.480469 C 176.179688 658.480469 170.015625 651.839844 170.015625 644.253906 L 170.015625 553.199219 C 170.015625 545.609375 176.179688 538.972656 184.242188 538.972656 C 191.828125 538.972656 198.46875 545.609375 198.46875 553.199219 L 198.46875 644.253906 C 198.46875 651.839844 191.828125 658.480469 184.242188 658.480469 Z M 184.242188 270.550781 C 176.179688 270.550781 170.015625 264.386719 170.015625 256.324219 L 170.015625 109.785156 C 170.015625 59.515625 210.800781 18.730469 261.070312 18.730469 L 696.894531 18.730469 C 704.957031 18.730469 711.121094 24.894531 711.121094 32.957031 C 711.121094 40.546875 704.957031 47.1875 696.894531 47.1875 L 261.070312 47.1875 C 226.449219 47.1875 198.46875 75.164062 198.46875 109.785156 L 198.46875 256.324219 C 198.46875 264.386719 191.828125 270.550781 184.242188 270.550781 Z M 184.242188 270.550781 " fill-opacity="1" fill-rule="evenodd"/></g><g clip-path="url(#a20ff62da7)"><path fill="#ffffff" d="M 795.535156 145.828125 L 649.46875 145.828125 C 641.40625 145.828125 635.242188 139.1875 635.242188 131.601562 L 635.242188 82.277344 C 635.242188 47.1875 663.695312 18.730469 698.789062 18.730469 L 746.214844 18.730469 C 781.308594 18.730469 809.761719 47.1875 809.761719 82.277344 L 809.761719 131.601562 C 809.761719 139.1875 803.125 145.828125 795.535156 145.828125 Z M 663.695312 117.371094 L 781.308594 117.371094 L 781.308594 82.277344 C 781.308594 62.835938 765.183594 47.1875 746.214844 47.1875 L 698.789062 47.1875 C 679.347656 47.1875 663.695312 62.835938 663.695312 82.277344 Z M 663.695312 117.371094 " fill-opacity="1" fill-rule="evenodd"/></g><g clip-path="url(#afff3695f7)"><path fill="#ffffff" d="M 531.859375 791.265625 L 219.808594 791.265625 C 138.714844 791.265625 72.796875 725.347656 72.796875 644.253906 C 72.796875 636.191406 78.960938 630.023438 87.023438 630.023438 L 531.859375 630.023438 C 537.550781 630.023438 542.292969 633.34375 544.664062 638.5625 C 547.035156 643.777344 546.085938 649.46875 542.292969 653.738281 C 506.722656 693.097656 506.25 728.667969 540.871094 766.132812 C 544.1875 768.503906 546.085938 772.769531 546.085938 777.039062 C 546.085938 784.628906 539.921875 791.265625 531.859375 791.265625 Z M 102.199219 658.480469 C 109.3125 717.285156 159.105469 762.8125 219.808594 762.8125 L 502.457031 762.8125 C 481.117188 728.667969 481.589844 693.097656 502.929688 658.480469 Z M 102.199219 658.480469 " fill-opacity="1" fill-rule="evenodd"/></g><path fill="#ffffff" d="M 164.324219 568.847656 C 73.742188 568.847656 0.238281 495.339844 0.238281 404.761719 C 0.238281 314.65625 73.742188 241.148438 164.324219 241.148438 C 254.429688 241.148438 327.9375 314.65625 327.9375 404.761719 C 327.9375 495.339844 254.429688 568.847656 164.324219 568.847656 Z M 164.324219 269.605469 C 89.394531 269.605469 28.691406 330.304688 28.691406 404.761719 C 28.691406 479.691406 89.394531 540.394531 164.324219 540.394531 C 238.777344 540.394531 299.480469 479.691406 299.480469 404.761719 C 299.480469 330.304688 238.777344 269.605469 164.324219 269.605469 Z M 164.324219 269.605469 " fill-opacity="1" fill-rule="evenodd"/><path fill="#ffffff" d="M 135.871094 465.9375 C 132.550781 465.9375 128.753906 464.515625 125.910156 461.671875 L 89.394531 424.679688 C 83.703125 419.464844 83.703125 410.453125 89.394531 404.761719 C 94.609375 399.070312 103.621094 399.070312 109.3125 404.761719 L 135.871094 431.320312 L 219.335938 348.328125 C 224.550781 342.636719 233.5625 342.636719 239.253906 348.328125 C 244.945312 354.019531 244.945312 363.027344 239.253906 368.246094 L 145.828125 461.671875 C 143.457031 464.515625 139.664062 465.9375 135.871094 465.9375 Z M 135.871094 465.9375 " fill-opacity="1" fill-rule="evenodd"/><path fill="#ffffff" d="M 560.789062 143.929688 L 320.347656 143.929688 C 312.285156 143.929688 306.121094 137.289062 306.121094 129.703125 C 306.121094 121.640625 312.285156 115.476562 320.347656 115.476562 L 560.789062 115.476562 C 568.375 115.476562 575.015625 121.640625 575.015625 129.703125 C 575.015625 137.289062 568.375 143.929688 560.789062 143.929688 Z M 560.789062 143.929688 " fill-opacity="1" fill-rule="evenodd"/><path fill="#ffffff" d="M 560.789062 227.394531 L 320.347656 227.394531 C 312.285156 227.394531 306.121094 220.757812 306.121094 213.167969 C 306.121094 205.105469 312.285156 198.941406 320.347656 198.941406 L 560.789062 198.941406 C 568.375 198.941406 575.015625 205.105469 575.015625 213.167969 C 575.015625 220.757812 568.375 227.394531 560.789062 227.394531 Z M 560.789062 227.394531 " fill-opacity="1" fill-rule="evenodd"/><path fill="#ffffff" d="M 560.789062 310.863281 L 393.855469 310.863281 C 386.265625 310.863281 379.628906 304.699219 379.628906 296.636719 C 379.628906 289.046875 386.265625 282.40625 393.855469 282.40625 L 560.789062 282.40625 C 568.375 282.40625 575.015625 289.046875 575.015625 296.636719 C 575.015625 304.699219 568.375 310.863281 560.789062 310.863281 Z M 560.789062 310.863281 " fill-opacity="1" fill-rule="evenodd"/><path fill="#ffffff" d="M 560.789062 394.800781 L 393.855469 394.800781 C 386.265625 394.800781 379.628906 388.164062 379.628906 380.574219 C 379.628906 372.511719 386.265625 366.347656 393.855469 366.347656 L 560.789062 366.347656 C 568.375 366.347656 575.015625 372.511719 575.015625 380.574219 C 575.015625 388.164062 568.375 394.800781 560.789062 394.800781 Z M 560.789062 394.800781 " fill-opacity="1" fill-rule="evenodd"/><path fill="#ffffff" d="M 560.789062 478.269531 L 393.855469 478.269531 C 386.265625 478.269531 379.628906 471.628906 379.628906 464.042969 C 379.628906 455.980469 386.265625 449.8125 393.855469 449.8125 L 560.789062 449.8125 C 568.375 449.8125 575.015625 455.980469 575.015625 464.042969 C 575.015625 471.628906 568.375 478.269531 560.789062 478.269531 Z M 560.789062 478.269531 " fill-opacity="1" fill-rule="evenodd"/><path fill="#ffffff" d="M 560.789062 561.734375 L 320.347656 561.734375 C 312.285156 561.734375 306.121094 555.570312 306.121094 547.507812 C 306.121094 539.917969 312.285156 533.28125 320.347656 533.28125 L 560.789062 533.28125 C 568.375 533.28125 575.015625 539.917969 575.015625 547.507812 C 575.015625 555.570312 568.375 561.734375 560.789062 561.734375 Z M 560.789062 561.734375 " fill-opacity="1" fill-rule="evenodd"/></svg>