<svg xmlns="http://www.w3.org/2000/svg" xmlns:xlink="http://www.w3.org/1999/xlink" width="1080" zoomAndPan="magnify" viewBox="0 0 810 809.999993" height="1080" preserveAspectRatio="xMidYMid meet" version="1.0"><path fill="#ffffff" d="M 405 0 C 356.535156 0 309.148438 8.472656 264.128906 25.175781 L 275.871094 56.816406 C 317.113281 41.511719 360.566406 33.75 405 33.75 C 609.710938 33.75 776.25 200.289062 776.25 405 C 776.25 609.710938 609.710938 776.25 405 776.25 C 200.289062 776.25 33.75 609.710938 33.75 405 C 33.75 293.710938 83.75 189.085938 168.75 118.832031 L 168.75 236.25 L 202.5 236.25 L 202.5 67.5 L 33.75 67.5 L 33.75 101.25 L 137.125 101.25 C 50.507812 177.695312 0 288.023438 0 405 C 0 628.308594 181.691406 810 405 810 C 628.308594 810 810 628.308594 810 405 C 810 181.691406 628.308594 0 405 0 Z M 405 0 " fill-opacity="1" fill-rule="nonzero"/><path fill="#ffffff" d="M 303.75 540 L 270 540 L 270 573.75 L 540 573.75 L 540 540 L 506.25 540 L 506.25 482.390625 L 428.859375 405 L 506.25 327.609375 L 506.25 270 L 540 270 L 540 236.25 L 270 236.25 L 270 270 L 303.75 270 L 303.75 327.609375 L 381.140625 405 L 303.75 482.390625 Z M 337.5 313.640625 L 337.5 270 L 472.5 270 L 472.5 313.640625 L 405 381.140625 Z M 405 428.859375 L 472.5 496.359375 L 472.5 540 L 337.5 540 L 337.5 496.359375 Z M 405 428.859375 " fill-opacity="1" fill-rule="nonzero"/><path fill="#ffffff" d="M 303.75 641.25 L 337.5 641.25 L 337.5 675 L 303.75 675 Z M 303.75 641.25 " fill-opacity="1" fill-rule="nonzero"/><path fill="#ffffff" d="M 388.125 641.25 L 421.875 641.25 L 421.875 675 L 388.125 675 Z M 388.125 641.25 " fill-opacity="1" fill-rule="nonzero"/><path fill="#ffffff" d="M 472.5 641.25 L 506.25 641.25 L 506.25 675 L 472.5 675 Z M 472.5 641.25 " fill-opacity="1" fill-rule="nonzero"/></svg>