<svg xmlns="http://www.w3.org/2000/svg" xmlns:xlink="http://www.w3.org/1999/xlink" width="1080" zoomAndPan="magnify" viewBox="0 0 810 809.999993" height="1080" preserveAspectRatio="xMidYMid meet" version="1.0"><path fill="#ffffff" d="M 585.804688 548.738281 L 769.320312 731.351562 L 731.351562 769.320312 L 548.738281 585.804688 C 561.960938 574.390625 574.390625 561.960938 585.804688 548.738281 Z M 332.679688 28.929688 C 500.375 28.929688 636.429688 164.984375 636.429688 332.679688 C 636.429688 500.375 500.375 636.429688 332.679688 636.429688 C 164.871094 636.429688 28.929688 500.375 28.929688 332.679688 C 28.929688 164.984375 164.871094 28.929688 332.679688 28.929688 Z M 332.679688 0 C 148.9375 0 0 148.9375 0 332.679688 C 0 516.421875 148.9375 665.355469 332.679688 665.355469 C 404.433594 665.355469 470.878906 642.417969 525.234375 603.882812 L 731.351562 810 L 810 731.351562 L 603.882812 525.234375 C 642.53125 470.878906 665.355469 404.433594 665.355469 332.679688 C 665.355469 148.9375 516.421875 0 332.679688 0 " fill-opacity="1" fill-rule="nonzero"/><path fill="#ffffff" d="M 129.613281 332.679688 C 129.613281 247.363281 183.0625 171.085938 263.296875 141.929688 C 274.371094 137.863281 280.132812 125.546875 276.066406 114.472656 C 271.996094 103.398438 259.679688 97.632812 248.605469 101.703125 C 151.421875 136.957031 86.785156 229.28125 86.785156 332.679688 C 86.785156 344.542969 96.390625 354.035156 108.257812 354.035156 C 120.121094 354.035156 129.613281 344.542969 129.613281 332.679688 " fill-opacity="1" fill-rule="nonzero"/></svg>