<svg xmlns="http://www.w3.org/2000/svg" xmlns:xlink="http://www.w3.org/1999/xlink" width="1080" zoomAndPan="magnify" viewBox="0 0 810 809.999993" height="1080" preserveAspectRatio="xMidYMid meet" version="1.0"><path fill="#ffffff" d="M 461.902344 809.988281 L 348.15625 810.011719 C 340.085938 810.011719 333.320312 804.332031 331.652344 796.757812 C 327.832031 784.378906 324.167969 771.835938 320.675781 759.191406 C 317.984375 749.453125 315.410156 739.695312 312.953125 729.949219 C 287.671875 722.792969 263.316406 712.65625 240.386719 699.824219 C 231.347656 705.234375 222.625 710.332031 214.253906 715.070312 C 202.46875 721.757812 190.597656 728.261719 178.683594 734.546875 C 171.988281 738.070312 163.996094 736.632812 158.90625 731.554688 L 78.464844 651.152344 C 72.828125 645.515625 72.011719 636.875 76.019531 630.359375 C 82.136719 618.785156 88.484375 607.230469 94.96875 595.777344 C 99.71875 587.394531 104.816406 578.683594 110.226562 569.644531 C 97.433594 546.765625 87.265625 522.308594 80.113281 497.085938 C 70.363281 494.640625 60.605469 492.054688 50.867188 489.363281 C 37.785156 485.75 24.804688 481.949219 12.003906 477.988281 C 4.757812 475.773438 0.109375 469.085938 0.101562 461.882812 L 0.0507812 348.15625 C 0.0507812 340.074219 5.726562 333.320312 13.308594 331.652344 C 25.671875 327.839844 38.195312 324.179688 50.796875 320.6875 C 60.566406 317.992188 70.34375 315.410156 80.113281 312.945312 C 87.277344 287.679688 97.382812 263.304688 110.226562 240.394531 C 104.796875 231.335938 99.699219 222.585938 94.929688 214.183594 C 88.273438 202.441406 81.769531 190.578125 75.492188 178.683594 C 71.96875 171.988281 73.40625 163.996094 78.484375 158.90625 L 158.886719 78.464844 C 164.523438 72.828125 173.164062 72.011719 179.679688 76.019531 C 191.253906 82.136719 202.789062 88.464844 214.242188 94.949219 C 222.636719 99.707031 231.367188 104.808594 240.414062 110.214844 C 263.304688 97.402344 287.710938 87.277344 312.945312 80.121094 C 315.410156 70.355469 317.992188 60.566406 320.6875 50.796875 C 324.300781 37.746094 328.101562 24.792969 332.050781 12.003906 C 334.265625 4.757812 340.953125 0.109375 348.15625 0.101562 L 461.902344 0.0507812 C 469.976562 0.0507812 476.742188 5.726562 478.40625 13.300781 C 482.226562 25.691406 485.898438 38.246094 489.390625 50.898438 C 492.085938 60.644531 494.660156 70.394531 497.105469 80.121094 C 522.308594 87.277344 546.746094 97.394531 569.613281 110.195312 C 578.285156 105.007812 587.035156 99.917969 595.835938 94.9375 C 607.601562 88.265625 619.464844 81.777344 631.355469 75.492188 C 638.050781 71.96875 646.042969 73.40625 651.132812 78.484375 L 731.574219 158.886719 C 737.210938 164.523438 738.03125 173.164062 734.027344 179.671875 C 727.914062 191.246094 721.585938 202.769531 715.101562 214.222656 C 710.121094 223.015625 705.035156 231.753906 699.855469 240.425781 C 712.6875 263.324219 722.804688 287.699219 729.949219 312.953125 C 739.695312 315.398438 749.453125 317.984375 759.191406 320.675781 C 772.273438 324.289062 785.253906 328.089844 798.054688 332.050781 C 805.300781 334.265625 809.949219 340.953125 809.960938 348.15625 L 810.011719 461.882812 C 810.011719 469.964844 804.332031 476.71875 796.75 478.386719 C 784.398438 482.199219 771.875 485.859375 759.261719 489.34375 C 749.496094 492.046875 739.714844 494.632812 729.949219 497.085938 C 722.8125 522.289062 712.636719 546.765625 699.855469 569.625 C 705.042969 578.296875 710.140625 587.046875 715.121094 595.847656 C 721.785156 607.601562 728.28125 619.464844 734.546875 631.355469 C 738.070312 638.050781 736.632812 646.042969 731.554688 651.132812 L 651.152344 731.574219 C 645.515625 737.210938 636.875 738.03125 630.371094 734.027344 C 618.804688 727.921875 607.269531 721.605469 595.847656 715.121094 C 587.046875 710.140625 578.292969 705.042969 569.625 699.855469 C 546.746094 712.636719 522.320312 722.804688 497.09375 729.949219 C 494.628906 739.746094 492.046875 749.5625 489.332031 759.363281 C 485.742188 772.394531 481.949219 785.304688 478.007812 798.054688 C 475.792969 805.300781 469.109375 809.949219 461.902344 809.988281 Z M 286.871094 422.222656 C 277.542969 422.222656 269.96875 414.648438 269.96875 405.320312 C 269.96875 395.988281 277.542969 388.417969 286.871094 388.417969 L 292.949219 388.417969 L 292.949219 279.257812 C 292.949219 269.929688 300.523438 262.355469 309.851562 262.355469 C 319.179688 262.355469 326.753906 269.929688 326.753906 279.257812 L 326.753906 388.417969 L 332.839844 388.417969 C 342.167969 388.417969 349.742188 395.988281 349.742188 405.320312 C 349.742188 414.648438 342.167969 422.222656 332.839844 422.222656 Z M 477.199219 472.03125 C 467.871094 472.03125 460.296875 464.457031 460.296875 455.128906 C 460.296875 445.800781 467.871094 438.226562 477.199219 438.226562 L 483.285156 438.226562 L 483.285156 279.257812 C 483.285156 269.929688 490.859375 262.355469 500.1875 262.355469 C 509.519531 262.355469 517.089844 269.929688 517.089844 279.257812 L 517.089844 438.226562 L 523.167969 438.226562 C 532.496094 438.226562 540.070312 445.800781 540.070312 455.128906 C 540.070312 464.457031 532.496094 472.03125 523.167969 472.03125 Z M 382.042969 328.050781 C 372.710938 328.050781 365.136719 320.476562 365.136719 311.148438 C 365.136719 301.820312 372.710938 294.246094 382.042969 294.246094 L 388.117188 294.246094 L 388.117188 279.257812 C 388.117188 269.929688 395.691406 262.355469 405.019531 262.355469 C 414.347656 262.355469 421.921875 269.929688 421.921875 279.257812 L 421.921875 294.246094 L 428 294.246094 C 437.328125 294.246094 444.902344 301.820312 444.902344 311.148438 C 444.902344 320.476562 437.328125 328.050781 428 328.050781 Z M 483.285156 506.214844 C 483.285156 496.886719 490.859375 489.3125 500.1875 489.3125 C 509.519531 489.3125 517.089844 496.886719 517.089844 506.214844 L 517.089844 530.789062 C 517.089844 540.121094 509.519531 547.691406 500.1875 547.691406 C 490.859375 547.691406 483.285156 540.121094 483.285156 530.789062 Z M 388.117188 362.246094 C 388.117188 352.914062 395.691406 345.34375 405.019531 345.34375 C 414.347656 345.34375 421.921875 352.914062 421.921875 362.246094 L 421.921875 530.789062 C 421.921875 540.121094 414.347656 547.691406 405.019531 547.691406 C 395.691406 547.691406 388.117188 540.121094 388.117188 530.789062 Z M 292.949219 456.40625 C 292.949219 447.078125 300.523438 439.503906 309.851562 439.503906 C 319.179688 439.503906 326.753906 447.078125 326.753906 456.40625 L 326.753906 530.789062 C 326.753906 540.121094 319.179688 547.691406 309.851562 547.691406 C 300.523438 547.691406 292.949219 540.121094 292.949219 530.789062 Z M 405.019531 149.476562 C 475.535156 149.476562 539.410156 178.09375 585.660156 224.332031 C 631.957031 270.570312 660.570312 334.464844 660.570312 405.019531 C 660.570312 475.574219 631.957031 539.472656 585.71875 585.707031 L 584.761719 586.597656 C 538.582031 632.316406 475.074219 660.5625 405.019531 660.5625 C 334.488281 660.5625 270.570312 631.945312 224.332031 585.707031 C 178.09375 539.472656 149.476562 475.574219 149.476562 405.019531 C 149.476562 334.488281 178.09375 270.570312 224.332031 224.332031 C 270.570312 178.09375 334.488281 149.476562 405.019531 149.476562 Z M 561.839844 248.199219 C 521.742188 208.097656 466.285156 183.28125 405.019531 183.28125 C 343.785156 183.28125 288.328125 208.109375 248.21875 248.21875 C 208.109375 288.328125 183.28125 343.785156 183.28125 405.019531 C 183.28125 466.265625 208.109375 521.710938 248.21875 561.820312 C 288.328125 601.933594 343.785156 626.757812 405.019531 626.757812 C 465.894531 626.757812 521.03125 602.25 561.09375 562.609375 L 561.832031 561.820312 C 601.941406 521.710938 626.765625 466.265625 626.765625 405.019531 C 626.765625 343.777344 601.941406 288.328125 561.839844 248.199219 Z M 360.628906 776.207031 L 449.441406 776.207031 L 456.863281 750.382812 C 460.257812 738.078125 463.488281 725.6875 466.535156 713.226562 C 467.671875 706.890625 472.410156 701.480469 479.054688 699.824219 C 507.792969 692.640625 535.261719 681.285156 560.683594 666.101562 C 565.953125 662.726562 572.886719 662.417969 578.585938 665.890625 C 589.757812 672.683594 601.09375 679.351562 612.488281 685.804688 L 636.085938 698.867188 L 698.867188 636.085938 L 685.804688 612.488281 C 679.351562 601.09375 672.683594 589.757812 665.890625 578.585938 C 662.746094 573.40625 662.496094 566.710938 665.820312 561.152344 C 681.136719 535.601562 692.609375 507.929688 699.835938 479.035156 C 701.339844 473.160156 705.953125 468.28125 712.246094 466.753906 C 724.988281 463.660156 737.699219 460.347656 750.28125 456.875 C 758.894531 454.5 767.535156 452.003906 776.203125 449.410156 L 776.203125 360.628906 L 750.210938 353.144531 C 737.980469 349.761719 725.628906 346.539062 713.226562 343.515625 C 706.890625 342.378906 701.480469 337.648438 699.824219 330.996094 C 692.652344 302.308594 681.277344 274.738281 666.101562 249.367188 C 662.726562 244.109375 662.417969 237.164062 665.890625 231.464844 C 672.683594 220.289062 679.332031 208.976562 685.785156 197.582031 L 698.867188 173.953125 L 636.097656 111.183594 L 612.480469 124.253906 C 601.0625 130.71875 589.75 137.363281 578.574219 144.160156 C 573.394531 147.304688 566.699219 147.550781 561.144531 144.230469 C 535.570312 128.902344 507.992188 117.488281 479.066406 110.234375 C 473.1875 108.730469 468.308594 104.117188 466.78125 97.824219 C 463.691406 85.101562 460.386719 72.4375 456.925781 59.878906 L 449.429688 33.855469 L 360.617188 33.855469 L 353.15625 59.777344 C 349.773438 72.039062 346.539062 84.414062 343.507812 96.835938 C 342.367188 103.171875 337.628906 108.578125 330.984375 110.234375 C 302.058594 117.460938 274.480469 128.894531 248.917969 144.230469 C 243.726562 147.292969 237.0625 147.492188 231.554688 144.160156 C 221.027344 137.765625 209.683594 131.109375 197.601562 124.265625 L 173.945312 111.183594 L 111.183594 173.945312 L 124.242188 197.542969 C 130.910156 209.296875 137.394531 220.359375 143.621094 230.636719 C 147.273438 235.90625 147.742188 243.050781 144.238281 248.90625 C 128.933594 274.410156 117.449219 302.128906 110.234375 330.984375 C 108.726562 336.863281 104.117188 341.742188 97.824219 343.265625 C 85.070312 346.371094 72.367188 349.683594 59.777344 353.15625 L 33.855469 360.617188 L 33.855469 449.410156 L 59.847656 456.894531 C 72.078125 460.277344 84.433594 463.5 96.835938 466.523438 C 103.171875 467.660156 108.578125 472.390625 110.234375 479.046875 C 117.457031 507.929688 128.921875 535.609375 144.230469 561.144531 C 147.292969 566.332031 147.492188 572.996094 144.160156 578.503906 C 137.785156 589 131.136719 600.324219 124.285156 612.417969 L 111.183594 636.097656 L 173.945312 698.855469 L 197.609375 685.757812 C 209.363281 679.089844 220.378906 672.636719 230.628906 666.429688 C 235.894531 662.777344 243.039062 662.308594 248.898438 665.8125 C 274.398438 681.097656 302.136719 692.632812 330.996094 699.824219 C 336.871094 701.332031 341.75 705.941406 343.277344 712.238281 C 346.371094 724.96875 349.671875 737.652344 353.144531 750.214844 Z M 360.628906 776.207031 " fill-opacity="1" fill-rule="nonzero"/></svg>