<svg xmlns="http://www.w3.org/2000/svg" xmlns:xlink="http://www.w3.org/1999/xlink" width="500" zoomAndPan="magnify" viewBox="0 0 375 374.999991" height="500" preserveAspectRatio="xMidYMid meet" version="1.0"><defs><g/><clipPath id="da7870b1df"><path d="M 63.503906 200.667969 L 173.25 200.667969 L 173.25 256.4375 L 63.503906 256.4375 Z M 63.503906 200.667969 " clip-rule="nonzero"/></clipPath></defs><path fill="#3e2470" d="M 110.4375 180.101562 C 95.421875 181.152344 94.636719 181.941406 93.738281 196.96875 C 92.691406 181.953125 91.898438 181.167969 76.875 180.269531 C 91.890625 179.222656 92.675781 178.429688 93.574219 163.40625 C 94.621094 178.421875 95.414062 179.203125 110.4375 180.101562 " fill-opacity="1" fill-rule="nonzero"/><path fill="#794cd4" d="M 80.859375 158.425781 C 73.71875 159.03125 73.351562 159.414062 73.03125 166.574219 C 72.425781 159.433594 72.042969 159.066406 64.882812 158.746094 C 72.023438 158.136719 72.390625 157.753906 72.710938 150.597656 C 73.320312 157.738281 73.703125 158.105469 80.859375 158.425781 " fill-opacity="1" fill-rule="nonzero"/><path fill="#794cd4" d="M 136.667969 166.414062 C 129.523438 167.019531 129.15625 167.402344 128.835938 174.5625 C 128.230469 167.421875 127.847656 167.054688 120.6875 166.734375 C 127.828125 166.128906 128.195312 165.746094 128.515625 158.585938 C 129.125 165.726562 129.507812 166.09375 136.667969 166.414062 " fill-opacity="1" fill-rule="nonzero"/><path fill="#3e2470" d="M 132.476562 155.453125 C 130.433594 144.273438 125.527344 129.660156 112.875 126.824219 C 95.808594 123 81.222656 140.515625 63.628906 136.375 C 54.507812 134.226562 47.332031 125.976562 37.894531 125.246094 C 27.542969 124.445312 19.488281 134.464844 17.3125 143.714844 C 14.671875 154.9375 20.394531 172.191406 23.191406 183.011719 C 18.609375 172.546875 12.0625 159.632812 13.558594 143.828125 C 14.683594 131.902344 24.652344 119.761719 37.492188 119.9375 C 47.796875 120.082031 55.171875 128.492188 64.753906 130.875 C 81.445312 135.023438 96.222656 118.550781 113.148438 122.84375 C 127.316406 126.441406 132.21875 142.519531 132.476562 155.453125 " fill-opacity="1" fill-rule="nonzero"/><path fill="#794cd4" d="M 106.761719 218.863281 C 106.761719 225.660156 101.25 231.171875 94.449219 231.171875 C 87.652344 231.171875 82.140625 225.660156 82.140625 218.863281 C 82.140625 212.066406 87.652344 206.554688 94.449219 206.554688 C 101.25 206.554688 106.761719 212.066406 106.761719 218.863281 " fill-opacity="1" fill-rule="nonzero"/><path fill="#4e3089" d="M 59.070312 196.851562 C 59.070312 202.921875 54.148438 207.847656 48.078125 207.847656 C 42.003906 207.847656 37.082031 202.921875 37.082031 196.851562 C 37.082031 190.777344 42.003906 185.855469 48.078125 185.855469 C 54.148438 185.855469 59.070312 190.777344 59.070312 196.851562 " fill-opacity="1" fill-rule="nonzero"/><path fill="#97939f" d="M 72.113281 214.820312 C 72.109375 214.257812 72.085938 213.648438 72.035156 213.015625 C 72.078125 213.613281 72.105469 214.222656 72.113281 214.820312 " fill-opacity="1" fill-rule="nonzero"/><g clip-path="url(#da7870b1df)"><path fill="#794cd4" d="M 133.324219 225.835938 C 118.269531 224.449219 107.019531 230.378906 97.292969 241.566406 C 93.257812 246.203125 86.851562 254.804688 80.308594 249.179688 C 77.601562 246.851562 76.789062 243.820312 76.585938 240.53125 C 75.976562 230.71875 77.746094 220.855469 77.3125 210.949219 C 76.960938 202.875 69.300781 198.839844 63.617188 201.609375 C 68.582031 202.722656 70.714844 206.414062 71.578125 210.0625 C 71.816406 210.964844 71.957031 211.976562 72.035156 213.015625 C 72.085938 213.648438 72.109375 214.257812 72.113281 214.820312 C 72.152344 217.492188 71.890625 220.042969 71.859375 221.144531 C 71.640625 228.492188 69.804688 236.71875 71.3125 244.019531 C 72.597656 250.238281 77.746094 256.152344 84.367188 256.425781 C 92.261719 256.753906 97.070312 249.539062 101.542969 244.171875 C 110.675781 233.214844 120.890625 228.390625 135.308594 229.195312 C 148.207031 229.917969 160.703125 231.183594 173.398438 227.914062 C 159.726562 229.789062 146.875 227.082031 133.324219 225.835938 " fill-opacity="1" fill-rule="nonzero"/></g><path fill="#4e3089" d="M 63.617188 201.609375 C 61.675781 202.554688 59.96875 204.292969 58.859375 206.9375 C 57.203125 210.890625 60.292969 219.097656 56.800781 221.519531 C 53.757812 223.628906 46.507812 218.722656 43.976562 216.703125 C 35.71875 210.109375 32.636719 199.605469 24.785156 192.5625 C 17.851562 186.339844 9.285156 181.734375 0.0507812 180.1875 C 11.316406 183.4375 22.730469 191.195312 28.753906 201.382812 C 33.613281 209.597656 37.234375 218.105469 45.824219 223.21875 C 50.1875 225.816406 57.070312 228.761719 61.0625 224.082031 C 64.753906 219.753906 60.273438 209.453125 65.863281 207.007812 C 69.25 205.527344 70.855469 207.296875 71.578125 210.0625 C 70.714844 206.414062 68.582031 202.722656 63.617188 201.609375 " fill-opacity="1" fill-rule="nonzero"/><g fill="#ffffff" fill-opacity="1"><g transform="translate(111.043444, 213.513473)"><g><path d="M 8.578125 -23.027344 C 8.578125 -24.890625 10.15625 -26.265625 12.789062 -26.265625 C 15.5 -26.265625 17.726562 -24.929688 18.777344 -22.378906 L 24.199219 -25.335938 C 22.378906 -29.664062 18.375 -32.171875 13.070312 -32.171875 C 7.082031 -32.171875 2.023438 -28.289062 2.023438 -22.621094 C 2.023438 -20.195312 2.996094 -18.171875 4.453125 -16.753906 C 6.152344 -15.054688 8.78125 -13.921875 12.179688 -12.910156 C 16.796875 -11.535156 18.171875 -10.683594 18.171875 -8.824219 C 18.171875 -6.878906 16.1875 -5.464844 13.355469 -5.464844 C 10.15625 -5.464844 7.648438 -7.121094 6.433594 -9.875 L 0.769531 -6.960938 C 2.628906 -2.429688 7.164062 0.484375 13.152344 0.484375 C 20.640625 0.484375 24.769531 -3.722656 24.769531 -9.308594 C 24.769531 -14.648438 20.71875 -17.117188 13.679688 -19.140625 C 10.28125 -20.113281 8.578125 -21.042969 8.578125 -23.027344 Z M 8.578125 -23.027344 "/></g></g></g><g fill="#ffffff" fill-opacity="1"><g transform="translate(137.426549, 213.513473)"><g><path d="M 26.75 -16.1875 C 29.339844 -16.1875 30.273438 -14.40625 30.273438 -12.058594 L 30.273438 0 L 36.585938 0 L 36.585938 -13.476562 C 36.585938 -18.414062 34.277344 -22.097656 28.976562 -22.097656 C 25.859375 -22.097656 23.835938 -20.921875 21.8125 -18.65625 C 20.558594 -21.042969 18.089844 -22.097656 15.5 -22.097656 C 13.03125 -22.097656 10.441406 -20.964844 9.1875 -18.777344 L 9.105469 -18.777344 L 9.105469 -21.609375 L 2.914062 -21.609375 L 2.914062 0 L 9.226562 0 L 9.226562 -11.980469 C 9.226562 -14.449219 10.480469 -16.1875 13.070312 -16.1875 C 15.660156 -16.1875 16.59375 -14.328125 16.59375 -11.980469 L 16.59375 0 L 22.867188 0 L 22.867188 -12.058594 C 22.867188 -14.527344 24.199219 -16.1875 26.75 -16.1875 Z M 26.75 -16.1875 "/></g></g></g><g fill="#ffffff" fill-opacity="1"><g transform="translate(176.717947, 213.513473)"><g><path d="M 2.144531 -29.136719 C 2.144531 -26.992188 3.925781 -25.253906 6.03125 -25.253906 C 8.257812 -25.253906 9.996094 -26.992188 9.996094 -29.136719 C 9.996094 -31.324219 8.257812 -33.0625 6.03125 -33.0625 C 3.925781 -33.0625 2.144531 -31.324219 2.144531 -29.136719 Z M 2.914062 0 L 2.914062 -21.609375 L 9.269531 -21.609375 L 9.269531 0 Z M 2.914062 0 "/></g></g></g><g fill="#ffffff" fill-opacity="1"><g transform="translate(188.897871, 213.513473)"><g><path d="M 9.269531 -32.984375 L 2.914062 -32.984375 L 2.914062 0 L 9.269531 0 Z M 9.269531 -32.984375 "/></g></g></g><g fill="#ffffff" fill-opacity="1"><g transform="translate(201.077794, 213.513473)"><g><path d="M 1.578125 -10.765625 C 1.578125 -4.25 6.800781 0.484375 13.355469 0.484375 C 19.871094 0.484375 25.171875 -4.371094 25.171875 -10.886719 C 25.171875 -17.320312 19.953125 -22.097656 13.4375 -22.097656 C 6.878906 -22.097656 1.578125 -17.199219 1.578125 -10.765625 Z M 8.054688 -10.847656 C 8.054688 -14.082031 10.402344 -16.351562 13.355469 -16.351562 C 16.308594 -16.351562 18.695312 -14.082031 18.695312 -10.847656 C 18.695312 -7.566406 16.351562 -5.300781 13.394531 -5.300781 C 10.441406 -5.300781 8.054688 -7.566406 8.054688 -10.847656 Z M 8.054688 -10.847656 "/></g></g></g><g fill="#ffffff" fill-opacity="1"><g transform="translate(227.825072, 213.513473)"><g><path d="M 8.578125 -23.027344 C 8.578125 -24.890625 10.15625 -26.265625 12.789062 -26.265625 C 15.5 -26.265625 17.726562 -24.929688 18.777344 -22.378906 L 24.199219 -25.335938 C 22.378906 -29.664062 18.375 -32.171875 13.070312 -32.171875 C 7.082031 -32.171875 2.023438 -28.289062 2.023438 -22.621094 C 2.023438 -20.195312 2.996094 -18.171875 4.453125 -16.753906 C 6.152344 -15.054688 8.78125 -13.921875 12.179688 -12.910156 C 16.796875 -11.535156 18.171875 -10.683594 18.171875 -8.824219 C 18.171875 -6.878906 16.1875 -5.464844 13.355469 -5.464844 C 10.15625 -5.464844 7.648438 -7.121094 6.433594 -9.875 L 0.769531 -6.960938 C 2.628906 -2.429688 7.164062 0.484375 13.152344 0.484375 C 20.640625 0.484375 24.769531 -3.722656 24.769531 -9.308594 C 24.769531 -14.648438 20.71875 -17.117188 13.679688 -19.140625 C 10.28125 -20.113281 8.578125 -21.042969 8.578125 -23.027344 Z M 8.578125 -23.027344 "/></g></g></g><g fill="#ffffff" fill-opacity="1"><g transform="translate(254.208177, 213.513473)"><g><path d="M 9.1875 -18.941406 L 9.1875 -21.609375 L 2.914062 -21.609375 L 2.914062 10.683594 L 9.226562 10.683594 L 9.226562 -2.386719 L 9.308594 -2.386719 C 11.332031 0.0820312 14.164062 0.40625 15.703125 0.40625 C 21.976562 0.40625 26.144531 -5.21875 26.144531 -10.847656 C 26.144531 -16.308594 22.21875 -22.015625 15.863281 -22.015625 C 14.367188 -22.015625 11.332031 -21.730469 9.269531 -18.941406 Z M 9.066406 -10.847656 C 9.066406 -14.082031 11.453125 -16.308594 14.367188 -16.308594 C 17.363281 -16.308594 19.75 -14.082031 19.75 -10.847656 C 19.75 -7.566406 17.363281 -5.300781 14.40625 -5.300781 C 11.453125 -5.300781 9.066406 -7.566406 9.066406 -10.847656 Z M 9.066406 -10.847656 "/></g></g></g><g fill="#ffffff" fill-opacity="1"><g transform="translate(281.967078, 213.513473)"><g><path d="M 16.875 -11.980469 L 16.875 0 L 23.148438 0 L 23.148438 -13.4375 C 23.148438 -17.886719 20.679688 -22.015625 15.214844 -22.015625 C 14.082031 -22.015625 11.089844 -21.652344 9.269531 -19.0625 L 9.226562 -19.0625 L 9.226562 -32.941406 L 2.914062 -32.941406 L 2.914062 0 L 9.226562 0 L 9.226562 -12.058594 C 9.226562 -14.125 10.402344 -16.1875 13.113281 -16.1875 C 15.703125 -16.1875 16.875 -14.328125 16.875 -11.980469 Z M 16.875 -11.980469 "/></g></g></g><g fill="#ffffff" fill-opacity="1"><g transform="translate(307.824132, 213.513473)"><g><path d="M 8.011719 -9.066406 L 23.714844 -9.066406 C 23.796875 -9.792969 23.796875 -10.5625 23.796875 -11.332031 C 23.796875 -17.726562 19.464844 -22.136719 13.03125 -22.136719 C 6.800781 -22.136719 1.578125 -17.078125 1.578125 -10.847656 C 1.578125 -4.128906 6.878906 0.484375 13.4375 0.484375 C 17.808594 0.484375 20.921875 -1.132812 22.742188 -4.410156 L 18.171875 -7.40625 C 17.199219 -5.789062 15.175781 -4.816406 13.355469 -4.816406 C 10.722656 -4.816406 8.417969 -6.355469 8.011719 -9.066406 Z M 17.484375 -13.234375 L 8.175781 -13.234375 C 8.417969 -14.648438 10.035156 -16.996094 12.871094 -16.996094 C 16.027344 -16.996094 17.363281 -14.8125 17.484375 -13.234375 Z M 17.484375 -13.234375 "/></g></g></g><g fill="#ffffff" fill-opacity="1"><g transform="translate(333.195613, 213.513473)"><g><path d="M 16.59375 -15.460938 L 16.59375 -21.691406 C 16.351562 -21.773438 15.785156 -21.855469 15.339844 -21.855469 C 12.304688 -21.855469 10.078125 -20.152344 9.226562 -18.292969 L 9.1875 -18.292969 L 9.1875 -21.609375 L 2.914062 -21.609375 L 2.914062 0 L 9.226562 0 L 9.226562 -9.144531 C 9.226562 -12.707031 10.765625 -15.582031 15.09375 -15.582031 C 15.660156 -15.582031 16.105469 -15.539062 16.59375 -15.460938 Z M 16.59375 -15.460938 "/></g></g></g><g fill="#ffffff" fill-opacity="1"><g transform="translate(350.393175, 213.513473)"><g><path d="M 8.011719 -9.066406 L 23.714844 -9.066406 C 23.796875 -9.792969 23.796875 -10.5625 23.796875 -11.332031 C 23.796875 -17.726562 19.464844 -22.136719 13.03125 -22.136719 C 6.800781 -22.136719 1.578125 -17.078125 1.578125 -10.847656 C 1.578125 -4.128906 6.878906 0.484375 13.4375 0.484375 C 17.808594 0.484375 20.921875 -1.132812 22.742188 -4.410156 L 18.171875 -7.40625 C 17.199219 -5.789062 15.175781 -4.816406 13.355469 -4.816406 C 10.722656 -4.816406 8.417969 -6.355469 8.011719 -9.066406 Z M 17.484375 -13.234375 L 8.175781 -13.234375 C 8.417969 -14.648438 10.035156 -16.996094 12.871094 -16.996094 C 16.027344 -16.996094 17.363281 -14.8125 17.484375 -13.234375 Z M 17.484375 -13.234375 "/></g></g></g></svg>