<svg xmlns="http://www.w3.org/2000/svg" xmlns:xlink="http://www.w3.org/1999/xlink" width="300" zoomAndPan="magnify" viewBox="0 0 224.87999 225" height="300" preserveAspectRatio="xMidYMid meet" version="1.0"><defs><g/><clipPath id="4de1a84796"><path d="M 127 45.628906 L 182.910156 45.628906 L 182.910156 82 L 127 82 Z M 127 45.628906 " clip-rule="nonzero"/></clipPath><clipPath id="cf1318cf1f"><path d="M 93 45.628906 L 182.910156 45.628906 L 182.910156 108 L 93 108 Z M 93 45.628906 " clip-rule="nonzero"/></clipPath></defs><path fill="#3e2470" d="M 74.519531 177.097656 C 72.832031 177.097656 70.859375 175.832031 70.859375 172.257812 C 70.859375 171.921875 70.960938 171.445312 71.191406 170.398438 C 71.542969 168.792969 72.078125 166.367188 72.117188 164.394531 C 72.195312 160.425781 71.261719 157.058594 69.621094 155.382812 C 68.738281 154.484375 67.671875 154.046875 66.355469 154.046875 C 65.035156 154.046875 63.96875 154.484375 63.085938 155.382812 C 61.445312 157.058594 60.511719 160.425781 60.589844 164.398438 C 60.632812 166.367188 61.164062 168.792969 61.515625 170.398438 C 61.746094 171.445312 61.847656 171.921875 61.847656 172.257812 C 61.847656 175.832031 59.875 177.097656 58.1875 177.097656 C 49.0625 177.097656 49.0625 159.851562 49.0625 150.589844 C 49.0625 147.515625 48.203125 145.570312 47.203125 143.316406 C 45.914062 140.402344 44.453125 137.097656 44.453125 130.761719 C 44.453125 120.28125 52.554688 119.464844 55.035156 119.464844 C 56.605469 119.464844 58.738281 120.046875 60.996094 120.660156 C 63.011719 121.207031 65.09375 121.773438 66.355469 121.773438 C 67.613281 121.773438 69.695312 121.207031 71.710938 120.660156 C 73.96875 120.046875 76.101562 119.464844 77.671875 119.464844 C 80.152344 119.464844 88.253906 120.28125 88.253906 130.761719 C 88.253906 137.097656 86.792969 140.402344 85.503906 143.316406 C 84.503906 145.570312 83.644531 147.515625 83.644531 150.589844 C 83.644531 159.851562 83.644531 177.097656 74.519531 177.097656 Z M 66.355469 151.742188 C 68.292969 151.742188 69.945312 152.421875 71.265625 153.765625 C 74.246094 156.804688 74.464844 162.246094 74.421875 164.441406 C 74.378906 166.640625 73.8125 169.199219 73.441406 170.894531 C 73.296875 171.554688 73.179688 172.054688 73.164062 172.28125 C 73.164062 173.847656 73.671875 174.792969 74.519531 174.792969 C 81.339844 174.792969 81.339844 158.445312 81.339844 150.589844 C 81.339844 147.027344 82.335938 144.773438 83.394531 142.382812 C 84.648438 139.546875 85.949219 136.609375 85.949219 130.761719 C 85.949219 123.332031 81.445312 121.773438 77.671875 121.773438 C 76.410156 121.773438 74.328125 122.335938 72.316406 122.882812 C 70.054688 123.496094 67.921875 124.078125 66.355469 124.078125 C 64.785156 124.078125 62.652344 123.496094 60.390625 122.882812 C 58.378906 122.335938 56.296875 121.773438 55.035156 121.773438 C 51.261719 121.773438 46.757812 123.332031 46.757812 130.761719 C 46.757812 136.609375 48.058594 139.546875 49.3125 142.382812 C 50.371094 144.773438 51.367188 147.027344 51.367188 150.589844 C 51.367188 158.445312 51.367188 174.792969 58.1875 174.792969 C 59.035156 174.792969 59.542969 173.847656 59.542969 172.257812 C 59.527344 172.054688 59.410156 171.554688 59.265625 170.894531 C 58.894531 169.199219 58.328125 166.640625 58.285156 164.445312 C 58.242188 162.246094 58.460938 156.804688 61.441406 153.765625 C 62.761719 152.421875 64.414062 151.742188 66.355469 151.742188 Z M 66.355469 151.742188 " fill-opacity="1" fill-rule="nonzero"/><path fill="#3e2470" d="M 117.855469 146.28125 C 117.316406 146.28125 116.761719 146.210938 116.191406 146.054688 C 114.558594 145.617188 112.984375 143.882812 113.90625 140.429688 C 113.992188 140.109375 114.214844 139.675781 114.707031 138.726562 C 115.464844 137.265625 116.605469 135.058594 117.15625 133.164062 C 118.261719 129.351562 118.230469 125.855469 117.078125 123.808594 C 116.460938 122.714844 115.539062 122.015625 114.269531 121.671875 C 113 121.332031 111.847656 121.476562 110.765625 122.121094 C 108.746094 123.3125 106.972656 126.324219 106.019531 130.179688 C 105.550781 132.09375 105.4375 134.574219 105.363281 136.21875 C 105.316406 137.289062 105.289062 137.777344 105.203125 138.101562 C 104.777344 139.6875 104.054688 140.804688 103.054688 141.425781 C 102.265625 141.921875 101.304688 142.066406 100.414062 141.828125 C 91.601562 139.46875 96.0625 122.808594 98.460938 113.859375 C 99.257812 110.890625 98.929688 108.789062 98.550781 106.351562 C 98.058594 103.203125 97.5 99.632812 99.140625 93.515625 C 101.855469 83.394531 109.890625 84.703125 112.285156 85.34375 C 113.800781 85.75 115.714844 86.859375 117.734375 88.035156 C 119.539062 89.085938 121.402344 90.171875 122.621094 90.5 C 123.839844 90.824219 125.980469 90.816406 128.085938 90.808594 C 130.425781 90.796875 132.636719 90.796875 134.148438 91.203125 C 136.550781 91.84375 144.164062 94.730469 141.449219 104.851562 C 139.808594 110.972656 137.542969 113.785156 135.542969 116.265625 C 133.996094 118.183594 132.660156 119.839844 131.867188 122.808594 C 129.621094 131.175781 125.570312 146.28125 117.855469 146.28125 Z M 112.972656 119.1875 C 113.589844 119.1875 114.222656 119.273438 114.863281 119.445312 C 116.742188 119.949219 118.160156 121.035156 119.085938 122.679688 C 121.175781 126.386719 119.980469 131.695312 119.371094 133.804688 C 118.757812 135.917969 117.550781 138.246094 116.753906 139.785156 C 116.441406 140.386719 116.199219 140.835938 116.128906 141.050781 C 115.722656 142.5625 115.96875 143.609375 116.789062 143.828125 C 123.339844 145.597656 127.605469 129.800781 129.636719 122.210938 C 130.5625 118.773438 132.105469 116.851562 133.75 114.820312 C 135.695312 112.402344 137.707031 109.902344 139.222656 104.253906 C 141.144531 97.078125 137.203125 94.40625 133.550781 93.429688 C 132.335938 93.101562 130.175781 93.105469 128.09375 93.117188 C 125.746094 93.125 123.539062 93.132812 122.027344 92.726562 C 120.507812 92.320312 118.597656 91.207031 116.574219 90.03125 C 114.773438 88.980469 112.90625 87.894531 111.691406 87.570312 C 108.046875 86.59375 103.289062 86.933594 101.367188 94.113281 C 99.851562 99.761719 100.347656 102.929688 100.828125 105.996094 C 101.230469 108.578125 101.609375 111.015625 100.691406 114.457031 C 98.65625 122.046875 94.425781 137.835938 101.011719 139.601562 C 101.164062 139.640625 101.488281 139.683594 101.839844 139.46875 C 102.175781 139.261719 102.640625 138.75 102.976562 137.503906 C 103.015625 137.300781 103.03125 136.789062 103.0625 136.113281 C 103.140625 134.378906 103.257812 131.761719 103.785156 129.628906 C 104.308594 127.496094 105.929688 122.300781 109.59375 120.132812 C 110.660156 119.503906 111.792969 119.1875 112.972656 119.1875 Z M 112.972656 119.1875 " fill-opacity="1" fill-rule="nonzero"/><path fill="#3e2470" d="M 110.15625 181.710938 C 99.96875 181.710938 93.183594 174.621094 91.535156 162.265625 C 91.222656 159.917969 91.160156 157.585938 91.101562 155.527344 C 90.9375 149.433594 90.59375 147.128906 87.679688 147.128906 C 86.34375 147.128906 84.90625 147.308594 83.277344 147.679688 C 82.644531 147.816406 82.035156 147.425781 81.898438 146.808594 C 81.757812 146.1875 82.148438 145.570312 82.769531 145.429688 C 84.566406 145.023438 86.171875 144.824219 87.679688 144.824219 C 93.113281 144.824219 93.257812 149.992188 93.40625 155.464844 C 93.464844 157.5625 93.523438 159.734375 93.820312 161.960938 C 94.691406 168.476562 97.964844 179.40625 110.15625 179.40625 C 122.34375 179.40625 125.617188 168.476562 126.484375 161.960938 C 126.785156 159.734375 126.847656 157.5625 126.902344 155.464844 C 127.054688 149.992188 127.195312 144.824219 132.632812 144.824219 C 137.835938 144.824219 142.722656 147.144531 142.929688 147.242188 C 143.503906 147.519531 143.742188 148.207031 143.46875 148.78125 C 143.191406 149.355469 142.503906 149.601562 141.933594 149.320312 C 141.882812 149.300781 137.296875 147.128906 132.632812 147.128906 C 129.714844 147.128906 129.375 149.433594 129.207031 155.527344 C 129.152344 157.585938 129.085938 159.917969 128.769531 162.269531 C 127.128906 174.621094 120.339844 181.710938 110.15625 181.710938 Z M 110.15625 181.710938 " fill-opacity="1" fill-rule="nonzero"/><path fill="#3e2470" d="M 49.683594 147.707031 C 49.601562 147.707031 49.515625 147.699219 49.429688 147.679688 C 47.800781 147.308594 46.363281 147.128906 45.03125 147.128906 C 44.503906 147.128906 44.074219 147.199219 43.753906 147.335938 C 43.171875 147.59375 42.488281 147.316406 42.238281 146.730469 C 41.988281 146.144531 42.261719 145.46875 42.847656 145.21875 C 43.464844 144.953125 44.179688 144.824219 45.03125 144.824219 C 46.535156 144.824219 48.140625 145.023438 49.941406 145.429688 C 50.5625 145.570312 50.949219 146.1875 50.808594 146.808594 C 50.6875 147.34375 50.210938 147.707031 49.683594 147.707031 Z M 49.683594 147.707031 " fill-opacity="1" fill-rule="nonzero"/><path fill="#3e2470" d="M 142.429688 58.375 C 142.429688 58.679688 142.371094 58.976562 142.253906 59.257812 C 142.136719 59.539062 141.96875 59.789062 141.753906 60.003906 C 141.539062 60.222656 141.289062 60.386719 141.007812 60.503906 C 140.722656 60.621094 140.429688 60.679688 140.125 60.679688 C 139.816406 60.679688 139.523438 60.621094 139.242188 60.503906 C 138.960938 60.386719 138.710938 60.222656 138.492188 60.003906 C 138.277344 59.789062 138.109375 59.539062 137.992188 59.257812 C 137.878906 58.976562 137.820312 58.679688 137.820312 58.375 C 137.820312 58.070312 137.878906 57.773438 137.992188 57.492188 C 138.109375 57.210938 138.277344 56.960938 138.492188 56.746094 C 138.710938 56.527344 138.960938 56.363281 139.242188 56.246094 C 139.523438 56.128906 139.816406 56.070312 140.125 56.070312 C 140.429688 56.070312 140.722656 56.128906 141.007812 56.246094 C 141.289062 56.363281 141.539062 56.527344 141.753906 56.746094 C 141.96875 56.960938 142.136719 57.210938 142.253906 57.492188 C 142.371094 57.773438 142.429688 58.070312 142.429688 58.375 Z M 142.429688 58.375 " fill-opacity="1" fill-rule="nonzero"/><g clip-path="url(#4de1a84796)"><path fill="#3e2470" d="M 181.621094 81.773438 C 181.527344 81.773438 181.433594 81.761719 181.339844 81.738281 L 137.566406 70.789062 C 137.5625 70.789062 137.5625 70.789062 137.5625 70.789062 L 136.363281 70.488281 C 136.3125 70.476562 136.261719 70.460938 136.214844 70.441406 C 130.9375 68.703125 127.445312 63.878906 127.445312 58.375 C 127.445312 51.382812 133.132812 45.695312 140.125 45.695312 C 141.035156 45.695312 141.859375 45.78125 142.648438 45.953125 C 142.660156 45.953125 142.675781 45.957031 142.6875 45.960938 L 181.898438 55.757812 C 182.515625 55.914062 182.890625 56.539062 182.738281 57.15625 C 182.585938 57.773438 181.964844 58.148438 181.339844 57.996094 L 143.328125 48.5 C 143.328125 48.496094 143.328125 48.496094 143.324219 48.496094 L 142.128906 48.195312 C 141.535156 48.066406 140.867188 48 140.125 48 C 134.402344 48 129.75 52.65625 129.75 58.375 C 129.75 62.910156 132.644531 66.878906 136.957031 68.261719 L 181.898438 79.503906 C 182.519531 79.65625 182.890625 80.285156 182.738281 80.902344 C 182.609375 81.425781 182.136719 81.773438 181.621094 81.773438 Z M 181.621094 81.773438 " fill-opacity="1" fill-rule="nonzero"/></g><g clip-path="url(#cf1318cf1f)"><path fill="#3e2470" d="M 96.324219 107.941406 C 95.773438 107.941406 95.300781 107.550781 95.191406 107.011719 C 92.808594 95.089844 92.144531 76.488281 95.230469 67.230469 C 100.160156 52.433594 112.398438 45.695312 121.679688 45.695312 L 181.621094 45.695312 C 182.257812 45.695312 182.773438 46.210938 182.773438 46.847656 C 182.773438 47.484375 182.257812 48 181.621094 48 L 121.679688 48 C 113.199219 48 101.988281 54.246094 97.417969 67.960938 C 95.007812 75.1875 95.023438 89.226562 96.46875 100.460938 C 98.476562 91.828125 102.820312 76.597656 109.433594 71.304688 C 114.285156 67.429688 123.097656 63.769531 137.527344 68.390625 C 137.769531 68.464844 137.941406 68.523438 138.03125 68.542969 L 137.777344 69.585938 L 138.472656 70.636719 C 137.988281 70.957031 137.621094 70.839844 136.824219 70.585938 C 126.175781 67.175781 117.199219 68.046875 110.875 73.109375 C 102.316406 79.953125 97.503906 106.71875 97.457031 106.988281 C 97.359375 107.53125 96.890625 107.933594 96.335938 107.941406 C 96.332031 107.941406 96.328125 107.941406 96.324219 107.941406 Z M 96.324219 107.941406 " fill-opacity="1" fill-rule="nonzero"/></g><path fill="#3e2470" d="M 133.207031 121.773438 C 132.910156 121.773438 132.613281 121.65625 132.390625 121.429688 C 132.027344 121.066406 131.953125 120.507812 132.199219 120.058594 C 132.3125 119.855469 143.582031 99.4375 143.582031 88.34375 C 143.582031 81.226562 141.804688 74.96875 140.3125 70.972656 C 140.261719 70.84375 140.238281 70.707031 140.238281 70.570312 C 140.238281 69.933594 140.753906 69.40625 141.390625 69.40625 C 141.933594 69.40625 142.390625 69.773438 142.511719 70.277344 C 144.0625 74.457031 145.886719 80.949219 145.886719 88.34375 C 145.886719 97.128906 139.566406 110.769531 136.21875 117.371094 C 143.074219 112.726562 157.414062 101.195312 157.414062 86.039062 C 157.414062 82.003906 156.816406 78.214844 155.632812 74.769531 C 155.425781 74.171875 155.746094 73.515625 156.347656 73.308594 C 156.953125 73.101562 157.605469 73.421875 157.8125 74.023438 C 159.078125 77.707031 159.71875 81.75 159.71875 86.039062 C 159.71875 107.226562 134.820312 121.050781 133.757812 121.632812 C 133.585938 121.726562 133.398438 121.773438 133.207031 121.773438 Z M 133.207031 121.773438 " fill-opacity="1" fill-rule="nonzero"/><g fill="#3e2470" fill-opacity="1"><g transform="translate(44.270112, 25.775295)"><g><path d="M 2.484375 0 L 2.484375 -19.84375 L 12.8125 -19.84375 L 12.8125 -18.359375 L 4.15625 -18.359375 L 4.15625 -10.84375 L 12 -10.84375 L 12 -9.359375 L 4.15625 -9.359375 L 4.15625 -1.484375 L 12.90625 -1.484375 L 12.90625 0 Z M 2.484375 0 "/></g></g></g><g fill="#3e2470" fill-opacity="1"><g transform="translate(59.417764, 25.775295)"><g><path d="M 8.125 -8.15625 C 7.03125 -8.09375 6.320312 -8.0625 6 -8.0625 L 3.515625 -8.0625 L 3.515625 0 L 1.84375 0 L 1.84375 -19.84375 L 6.296875 -19.84375 C 8.765625 -19.84375 10.570312 -19.414062 11.71875 -18.5625 C 12.875 -17.71875 13.453125 -16.226562 13.453125 -14.09375 C 13.453125 -12.65625 13.160156 -11.5 12.578125 -10.625 C 12.003906 -9.757812 11.082031 -9.054688 9.8125 -8.515625 C 11.1875 -5.910156 12.441406 -3.070312 13.578125 0 L 11.75 0 C 10.644531 -2.945312 9.4375 -5.664062 8.125 -8.15625 Z M 6.234375 -18.328125 L 3.515625 -18.328125 L 3.515625 -9.578125 L 5.9375 -9.578125 C 7.789062 -9.578125 9.210938 -9.914062 10.203125 -10.59375 C 11.191406 -11.269531 11.6875 -12.4375 11.6875 -14.09375 C 11.6875 -15.75 11.25 -16.867188 10.375 -17.453125 C 9.5 -18.035156 8.117188 -18.328125 6.234375 -18.328125 Z M 6.234375 -18.328125 "/></g></g></g><g fill="#3e2470" fill-opacity="1"><g transform="translate(74.565416, 25.775295)"><g><path d="M 8.125 -8.15625 C 7.03125 -8.09375 6.320312 -8.0625 6 -8.0625 L 3.515625 -8.0625 L 3.515625 0 L 1.84375 0 L 1.84375 -19.84375 L 6.296875 -19.84375 C 8.765625 -19.84375 10.570312 -19.414062 11.71875 -18.5625 C 12.875 -17.71875 13.453125 -16.226562 13.453125 -14.09375 C 13.453125 -12.65625 13.160156 -11.5 12.578125 -10.625 C 12.003906 -9.757812 11.082031 -9.054688 9.8125 -8.515625 C 11.1875 -5.910156 12.441406 -3.070312 13.578125 0 L 11.75 0 C 10.644531 -2.945312 9.4375 -5.664062 8.125 -8.15625 Z M 6.234375 -18.328125 L 3.515625 -18.328125 L 3.515625 -9.578125 L 5.9375 -9.578125 C 7.789062 -9.578125 9.210938 -9.914062 10.203125 -10.59375 C 11.191406 -11.269531 11.6875 -12.4375 11.6875 -14.09375 C 11.6875 -15.75 11.25 -16.867188 10.375 -17.453125 C 9.5 -18.035156 8.117188 -18.328125 6.234375 -18.328125 Z M 6.234375 -18.328125 "/></g></g></g><g fill="#3e2470" fill-opacity="1"><g transform="translate(89.713068, 25.775295)"><g><path d="M 1.21875 -10.125 C 1.21875 -11.695312 1.316406 -13.054688 1.515625 -14.203125 C 1.710938 -15.359375 2.035156 -16.398438 2.484375 -17.328125 C 3.390625 -19.203125 5.085938 -20.140625 7.578125 -20.140625 C 10.398438 -20.117188 12.257812 -18.796875 13.15625 -16.171875 C 13.675781 -14.660156 13.9375 -12.878906 13.9375 -10.828125 C 13.9375 -8.773438 13.832031 -7.144531 13.625 -5.9375 C 13.425781 -4.726562 13.109375 -3.640625 12.671875 -2.671875 C 11.734375 -0.691406 10.035156 0.296875 7.578125 0.296875 C 5.148438 0.296875 3.460938 -0.691406 2.515625 -2.671875 C 1.648438 -4.460938 1.21875 -6.945312 1.21875 -10.125 Z M 12.15625 -9.875 C 12.15625 -10.96875 12.128906 -11.847656 12.078125 -12.515625 C 12.023438 -13.179688 11.90625 -13.914062 11.71875 -14.71875 C 11.539062 -15.53125 11.296875 -16.195312 10.984375 -16.71875 C 10.671875 -17.25 10.222656 -17.691406 9.640625 -18.046875 C 9.066406 -18.398438 8.375 -18.578125 7.5625 -18.578125 C 6.757812 -18.578125 6.070312 -18.398438 5.5 -18.046875 C 4.925781 -17.691406 4.484375 -17.25 4.171875 -16.71875 C 3.859375 -16.195312 3.609375 -15.53125 3.421875 -14.71875 C 3.140625 -13.46875 3 -12.078125 3 -10.546875 C 3 -9.023438 3.050781 -7.796875 3.15625 -6.859375 C 3.269531 -5.921875 3.476562 -5 3.78125 -4.09375 C 4.40625 -2.207031 5.671875 -1.265625 7.578125 -1.265625 C 9.515625 -1.265625 10.785156 -2.21875 11.390625 -4.125 C 11.910156 -5.738281 12.164062 -7.65625 12.15625 -9.875 Z M 12.15625 -9.875 "/></g></g></g><g fill="#3e2470" fill-opacity="1"><g transform="translate(104.86072, 25.775295)"><g><path d="M 8.125 -8.15625 C 7.03125 -8.09375 6.320312 -8.0625 6 -8.0625 L 3.515625 -8.0625 L 3.515625 0 L 1.84375 0 L 1.84375 -19.84375 L 6.296875 -19.84375 C 8.765625 -19.84375 10.570312 -19.414062 11.71875 -18.5625 C 12.875 -17.71875 13.453125 -16.226562 13.453125 -14.09375 C 13.453125 -12.65625 13.160156 -11.5 12.578125 -10.625 C 12.003906 -9.757812 11.082031 -9.054688 9.8125 -8.515625 C 11.1875 -5.910156 12.441406 -3.070312 13.578125 0 L 11.75 0 C 10.644531 -2.945312 9.4375 -5.664062 8.125 -8.15625 Z M 6.234375 -18.328125 L 3.515625 -18.328125 L 3.515625 -9.578125 L 5.9375 -9.578125 C 7.789062 -9.578125 9.210938 -9.914062 10.203125 -10.59375 C 11.191406 -11.269531 11.6875 -12.4375 11.6875 -14.09375 C 11.6875 -15.75 11.25 -16.867188 10.375 -17.453125 C 9.5 -18.035156 8.117188 -18.328125 6.234375 -18.328125 Z M 6.234375 -18.328125 "/></g></g></g><g fill="#3e2470" fill-opacity="1"><g transform="translate(120.008376, 25.775295)"><g/></g></g><g fill="#3e2470" fill-opacity="1"><g transform="translate(135.156032, 25.775295)"><g><path d="M 13.90625 -5.421875 L 13.90625 -3.84375 L 11.171875 -3.84375 L 11.171875 0.296875 L 9.515625 0.296875 L 9.515625 -3.84375 L 1.296875 -3.84375 L 1.296875 -5.265625 L 6.265625 -19.203125 L 8 -19.203125 L 3.1875 -5.421875 L 9.515625 -5.421875 L 9.515625 -11.78125 L 11.171875 -11.78125 L 11.171875 -5.421875 Z M 13.90625 -5.421875 "/></g></g></g><g fill="#3e2470" fill-opacity="1"><g transform="translate(150.303688, 25.775295)"><g><path d="M 1.75 -9.640625 C 1.75 -13.191406 2.203125 -15.722656 3.109375 -17.234375 C 4.023438 -18.753906 5.507812 -19.515625 7.5625 -19.515625 C 9.613281 -19.515625 11.09375 -18.753906 12 -17.234375 C 12.90625 -15.722656 13.359375 -13.191406 13.359375 -9.640625 C 13.359375 -6.097656 12.90625 -3.5625 12 -2.03125 C 11.09375 -0.5 9.613281 0.265625 7.5625 0.265625 C 5.507812 0.265625 4.023438 -0.5 3.109375 -2.03125 C 2.203125 -3.5625 1.75 -6.097656 1.75 -9.640625 Z M 4.53125 -3.234375 C 5.082031 -1.941406 6.082031 -1.296875 7.53125 -1.296875 C 8.988281 -1.296875 10 -1.941406 10.5625 -3.234375 C 11.132812 -4.535156 11.421875 -6.679688 11.421875 -9.671875 C 11.421875 -12.671875 11.144531 -14.796875 10.59375 -16.046875 C 10.050781 -17.304688 9.039062 -17.9375 7.5625 -17.9375 C 6.09375 -17.9375 5.082031 -17.304688 4.53125 -16.046875 C 3.976562 -14.785156 3.703125 -12.660156 3.703125 -9.671875 C 3.703125 -6.679688 3.976562 -4.535156 4.53125 -3.234375 Z M 4.53125 -3.234375 "/></g></g></g><g fill="#3e2470" fill-opacity="1"><g transform="translate(165.451344, 25.775295)"><g><path d="M 13.90625 -5.421875 L 13.90625 -3.84375 L 11.171875 -3.84375 L 11.171875 0.296875 L 9.515625 0.296875 L 9.515625 -3.84375 L 1.296875 -3.84375 L 1.296875 -5.265625 L 6.265625 -19.203125 L 8 -19.203125 L 3.1875 -5.421875 L 9.515625 -5.421875 L 9.515625 -11.78125 L 11.171875 -11.78125 L 11.171875 -5.421875 Z M 13.90625 -5.421875 "/></g></g></g><g fill="#3e2470" fill-opacity="1"><g transform="translate(31.613694, 218.720212)"><g><path d="M 5.390625 -13.9375 L 5.609375 -13.9375 C 5.910156 -13.9375 6.0625 -13.796875 6.0625 -13.515625 L 6.0625 -0.453125 C 6.0625 -0.328125 6.019531 -0.21875 5.9375 -0.125 C 5.851562 -0.0390625 5.742188 0 5.609375 0 L 5.390625 0 C 5.253906 0 5.144531 -0.0390625 5.0625 -0.125 C 4.976562 -0.21875 4.9375 -0.328125 4.9375 -0.453125 L 4.9375 -13.515625 C 4.9375 -13.796875 5.085938 -13.9375 5.390625 -13.9375 Z M 0.5625 -15.640625 L 10.484375 -15.640625 C 10.617188 -15.640625 10.722656 -15.59375 10.796875 -15.5 C 10.878906 -15.414062 10.921875 -15.3125 10.921875 -15.1875 L 10.921875 -14.953125 C 10.921875 -14.679688 10.773438 -14.546875 10.484375 -14.546875 L 0.5625 -14.546875 C 0.257812 -14.546875 0.109375 -14.679688 0.109375 -14.953125 L 0.109375 -15.1875 C 0.109375 -15.3125 0.148438 -15.414062 0.234375 -15.5 C 0.328125 -15.59375 0.4375 -15.640625 0.5625 -15.640625 Z M 0.5625 -15.640625 "/></g></g></g><g fill="#3e2470" fill-opacity="1"><g transform="translate(42.78509, 218.720212)"><g><path d="M 1.5625 -7.53125 C 1.5625 -8.707031 1.914062 -9.613281 2.625 -10.25 C 3.34375 -10.894531 4.273438 -11.21875 5.421875 -11.21875 C 6.578125 -11.21875 7.503906 -10.890625 8.203125 -10.234375 C 8.898438 -9.585938 9.25 -8.6875 9.25 -7.53125 L 9.25 -3.640625 C 9.25 -2.484375 8.898438 -1.578125 8.203125 -0.921875 C 7.503906 -0.273438 6.582031 0.046875 5.4375 0.046875 C 4.300781 0.046875 3.367188 -0.273438 2.640625 -0.921875 C 1.921875 -1.578125 1.5625 -2.484375 1.5625 -3.640625 Z M 8.203125 -7.53125 C 8.203125 -8.375 7.941406 -9.023438 7.421875 -9.484375 C 6.898438 -9.941406 6.234375 -10.171875 5.421875 -10.171875 C 4.617188 -10.171875 3.945312 -9.941406 3.40625 -9.484375 C 2.875 -9.023438 2.609375 -8.375 2.609375 -7.53125 L 2.609375 -3.640625 C 2.609375 -2.796875 2.875 -2.144531 3.40625 -1.6875 C 3.945312 -1.226562 4.617188 -1 5.421875 -1 C 6.234375 -1 6.898438 -1.226562 7.421875 -1.6875 C 7.941406 -2.144531 8.203125 -2.796875 8.203125 -3.640625 Z M 8.203125 -7.53125 "/></g></g></g><g fill="#3e2470" fill-opacity="1"><g transform="translate(54.045857, 218.720212)"><g><path d="M 1.5625 -7.53125 C 1.5625 -8.707031 1.914062 -9.613281 2.625 -10.25 C 3.34375 -10.894531 4.273438 -11.21875 5.421875 -11.21875 C 6.578125 -11.21875 7.503906 -10.890625 8.203125 -10.234375 C 8.898438 -9.585938 9.25 -8.6875 9.25 -7.53125 L 9.25 -3.640625 C 9.25 -2.484375 8.898438 -1.578125 8.203125 -0.921875 C 7.503906 -0.273438 6.582031 0.046875 5.4375 0.046875 C 4.300781 0.046875 3.367188 -0.273438 2.640625 -0.921875 C 1.921875 -1.578125 1.5625 -2.484375 1.5625 -3.640625 Z M 8.203125 -7.53125 C 8.203125 -8.375 7.941406 -9.023438 7.421875 -9.484375 C 6.898438 -9.941406 6.234375 -10.171875 5.421875 -10.171875 C 4.617188 -10.171875 3.945312 -9.941406 3.40625 -9.484375 C 2.875 -9.023438 2.609375 -8.375 2.609375 -7.53125 L 2.609375 -3.640625 C 2.609375 -2.796875 2.875 -2.144531 3.40625 -1.6875 C 3.945312 -1.226562 4.617188 -1 5.421875 -1 C 6.234375 -1 6.898438 -1.226562 7.421875 -1.6875 C 7.941406 -2.144531 8.203125 -2.796875 8.203125 -3.640625 Z M 8.203125 -7.53125 "/></g></g></g><g fill="#3e2470" fill-opacity="1"><g transform="translate(65.306625, 218.720212)"><g><path d="M 2.53125 -16.3125 L 2.703125 -16.3125 C 2.984375 -16.3125 3.125 -16.171875 3.125 -15.890625 L 3.0625 -3.4375 C 3.070312 -2.675781 3.28125 -2.085938 3.6875 -1.671875 C 4.101562 -1.253906 4.644531 -1.046875 5.3125 -1.046875 L 5.875 -1.046875 C 6 -1.046875 6.097656 -1 6.171875 -0.90625 C 6.253906 -0.820312 6.296875 -0.726562 6.296875 -0.625 L 6.296875 -0.453125 C 6.296875 -0.148438 5.960938 0 5.296875 0 C 4.316406 0 3.523438 -0.300781 2.921875 -0.90625 C 2.328125 -1.507812 2.023438 -2.347656 2.015625 -3.421875 L 2.078125 -15.890625 C 2.109375 -16.171875 2.257812 -16.3125 2.53125 -16.3125 Z M 0.796875 -11.171875 L 1.34375 -11.171875 C 1.476562 -11.171875 1.582031 -11.125 1.65625 -11.03125 C 1.738281 -10.945312 1.78125 -10.84375 1.78125 -10.71875 L 1.78125 -10.59375 C 1.78125 -10.46875 1.738281 -10.359375 1.65625 -10.265625 C 1.582031 -10.179688 1.476562 -10.140625 1.34375 -10.140625 L 0.796875 -10.140625 C 0.671875 -10.140625 0.566406 -10.179688 0.484375 -10.265625 C 0.398438 -10.359375 0.359375 -10.46875 0.359375 -10.59375 L 0.359375 -10.71875 C 0.359375 -10.84375 0.398438 -10.945312 0.484375 -11.03125 C 0.566406 -11.125 0.671875 -11.171875 0.796875 -11.171875 Z M 3.796875 -11.171875 L 5.453125 -11.171875 C 5.566406 -11.171875 5.664062 -11.125 5.75 -11.03125 C 5.832031 -10.945312 5.875 -10.84375 5.875 -10.71875 L 5.875 -10.59375 C 5.875 -10.46875 5.832031 -10.359375 5.75 -10.265625 C 5.664062 -10.179688 5.566406 -10.140625 5.453125 -10.140625 L 3.796875 -10.140625 C 3.679688 -10.140625 3.578125 -10.179688 3.484375 -10.265625 C 3.390625 -10.359375 3.34375 -10.46875 3.34375 -10.59375 L 3.34375 -10.71875 C 3.34375 -10.84375 3.390625 -10.945312 3.484375 -11.03125 C 3.578125 -11.125 3.679688 -11.171875 3.796875 -11.171875 Z M 3.796875 -11.171875 "/></g></g></g><g fill="#3e2470" fill-opacity="1"><g transform="translate(72.813804, 218.720212)"><g><path d="M 5.453125 -11.21875 C 6.484375 -11.21875 7.320312 -10.890625 7.96875 -10.234375 C 8.613281 -9.578125 8.9375 -8.675781 8.9375 -7.53125 L 8.9375 -0.453125 C 8.9375 -0.148438 8.796875 0 8.515625 0 L 8.3125 0 C 8.007812 0 7.859375 -0.148438 7.859375 -0.453125 L 7.859375 -7.5 C 7.859375 -8.351562 7.628906 -9.007812 7.171875 -9.46875 C 6.710938 -9.9375 6.09375 -10.171875 5.3125 -10.171875 C 4.53125 -10.171875 3.851562 -9.882812 3.28125 -9.3125 C 3.144531 -9.175781 3.019531 -9.109375 2.90625 -9.109375 C 2.632812 -9.109375 2.492188 -9.257812 2.484375 -9.5625 C 2.484375 -9.664062 2.507812 -9.773438 2.5625 -9.890625 C 2.757812 -10.253906 3.132812 -10.566406 3.6875 -10.828125 C 4.238281 -11.085938 4.828125 -11.21875 5.453125 -11.21875 Z M 1.75 -16.328125 L 1.921875 -16.328125 C 2.035156 -16.328125 2.140625 -16.285156 2.234375 -16.203125 C 2.328125 -16.128906 2.375 -16.023438 2.375 -15.890625 L 2.375 -0.453125 C 2.375 -0.316406 2.328125 -0.207031 2.234375 -0.125 C 2.140625 -0.0390625 2.035156 0 1.921875 0 L 1.75 0 C 1.625 0 1.515625 -0.0390625 1.421875 -0.125 C 1.335938 -0.207031 1.296875 -0.316406 1.296875 -0.453125 L 1.296875 -15.890625 C 1.296875 -16.023438 1.335938 -16.128906 1.421875 -16.203125 C 1.515625 -16.285156 1.625 -16.328125 1.75 -16.328125 Z M 1.75 -16.328125 "/></g></g></g><g fill="#3e2470" fill-opacity="1"><g transform="translate(83.448973, 218.720212)"><g/></g></g><g fill="#3e2470" fill-opacity="1"><g transform="translate(94.62037, 218.720212)"><g><path d="M 1.984375 -15.6875 C 2.390625 -15.6875 2.703125 -15.507812 2.921875 -15.15625 C 5.796875 -10.382812 8.441406 -5.847656 10.859375 -1.546875 L 10.859375 -15.1875 C 10.859375 -15.3125 10.898438 -15.414062 10.984375 -15.5 C 11.066406 -15.59375 11.175781 -15.640625 11.3125 -15.640625 L 11.53125 -15.640625 C 11.664062 -15.640625 11.769531 -15.59375 11.84375 -15.5 C 11.925781 -15.414062 11.96875 -15.3125 11.96875 -15.1875 L 11.96875 -0.828125 C 11.96875 -0.523438 11.882812 -0.300781 11.71875 -0.15625 C 11.550781 -0.0195312 11.3125 0.046875 11 0.046875 C 10.6875 0.046875 10.425781 -0.117188 10.21875 -0.453125 L 2.28125 -14.046875 L 2.28125 -0.453125 C 2.28125 -0.328125 2.234375 -0.21875 2.140625 -0.125 C 2.054688 -0.0390625 1.953125 0 1.828125 0 L 1.59375 0 C 1.46875 0 1.363281 -0.0390625 1.28125 -0.125 C 1.195312 -0.21875 1.15625 -0.328125 1.15625 -0.453125 L 1.15625 -14.765625 C 1.15625 -15.378906 1.429688 -15.6875 1.984375 -15.6875 Z M 1.984375 -15.6875 "/></g></g></g><g fill="#3e2470" fill-opacity="1"><g transform="translate(108.026045, 218.720212)"><g><path d="M 1.5625 -7.53125 C 1.5625 -8.707031 1.914062 -9.613281 2.625 -10.25 C 3.34375 -10.894531 4.273438 -11.21875 5.421875 -11.21875 C 6.578125 -11.21875 7.503906 -10.890625 8.203125 -10.234375 C 8.898438 -9.585938 9.25 -8.6875 9.25 -7.53125 L 9.25 -3.640625 C 9.25 -2.484375 8.898438 -1.578125 8.203125 -0.921875 C 7.503906 -0.273438 6.582031 0.046875 5.4375 0.046875 C 4.300781 0.046875 3.367188 -0.273438 2.640625 -0.921875 C 1.921875 -1.578125 1.5625 -2.484375 1.5625 -3.640625 Z M 8.203125 -7.53125 C 8.203125 -8.375 7.941406 -9.023438 7.421875 -9.484375 C 6.898438 -9.941406 6.234375 -10.171875 5.421875 -10.171875 C 4.617188 -10.171875 3.945312 -9.941406 3.40625 -9.484375 C 2.875 -9.023438 2.609375 -8.375 2.609375 -7.53125 L 2.609375 -3.640625 C 2.609375 -2.796875 2.875 -2.144531 3.40625 -1.6875 C 3.945312 -1.226562 4.617188 -1 5.421875 -1 C 6.234375 -1 6.898438 -1.226562 7.421875 -1.6875 C 7.941406 -2.144531 8.203125 -2.796875 8.203125 -3.640625 Z M 8.203125 -7.53125 "/></g></g></g><g fill="#3e2470" fill-opacity="1"><g transform="translate(119.286812, 218.720212)"><g><path d="M 2.53125 -16.3125 L 2.703125 -16.3125 C 2.984375 -16.3125 3.125 -16.171875 3.125 -15.890625 L 3.0625 -3.4375 C 3.070312 -2.675781 3.28125 -2.085938 3.6875 -1.671875 C 4.101562 -1.253906 4.644531 -1.046875 5.3125 -1.046875 L 5.875 -1.046875 C 6 -1.046875 6.097656 -1 6.171875 -0.90625 C 6.253906 -0.820312 6.296875 -0.726562 6.296875 -0.625 L 6.296875 -0.453125 C 6.296875 -0.148438 5.960938 0 5.296875 0 C 4.316406 0 3.523438 -0.300781 2.921875 -0.90625 C 2.328125 -1.507812 2.023438 -2.347656 2.015625 -3.421875 L 2.078125 -15.890625 C 2.109375 -16.171875 2.257812 -16.3125 2.53125 -16.3125 Z M 0.796875 -11.171875 L 1.34375 -11.171875 C 1.476562 -11.171875 1.582031 -11.125 1.65625 -11.03125 C 1.738281 -10.945312 1.78125 -10.84375 1.78125 -10.71875 L 1.78125 -10.59375 C 1.78125 -10.46875 1.738281 -10.359375 1.65625 -10.265625 C 1.582031 -10.179688 1.476562 -10.140625 1.34375 -10.140625 L 0.796875 -10.140625 C 0.671875 -10.140625 0.566406 -10.179688 0.484375 -10.265625 C 0.398438 -10.359375 0.359375 -10.46875 0.359375 -10.59375 L 0.359375 -10.71875 C 0.359375 -10.84375 0.398438 -10.945312 0.484375 -11.03125 C 0.566406 -11.125 0.671875 -11.171875 0.796875 -11.171875 Z M 3.796875 -11.171875 L 5.453125 -11.171875 C 5.566406 -11.171875 5.664062 -11.125 5.75 -11.03125 C 5.832031 -10.945312 5.875 -10.84375 5.875 -10.71875 L 5.875 -10.59375 C 5.875 -10.46875 5.832031 -10.359375 5.75 -10.265625 C 5.664062 -10.179688 5.566406 -10.140625 5.453125 -10.140625 L 3.796875 -10.140625 C 3.679688 -10.140625 3.578125 -10.179688 3.484375 -10.265625 C 3.390625 -10.359375 3.34375 -10.46875 3.34375 -10.59375 L 3.34375 -10.71875 C 3.34375 -10.84375 3.390625 -10.945312 3.484375 -11.03125 C 3.578125 -11.125 3.679688 -11.171875 3.796875 -11.171875 Z M 3.796875 -11.171875 "/></g></g></g><g fill="#3e2470" fill-opacity="1"><g transform="translate(126.793996, 218.720212)"><g/></g></g><g fill="#3e2470" fill-opacity="1"><g transform="translate(137.965397, 218.720212)"><g><path d="M 2.21875 -15.640625 L 9.65625 -15.640625 C 9.789062 -15.640625 9.894531 -15.59375 9.96875 -15.5 C 10.050781 -15.414062 10.09375 -15.3125 10.09375 -15.1875 L 10.09375 -15 C 10.09375 -14.695312 9.945312 -14.546875 9.65625 -14.546875 L 2.484375 -14.546875 L 2.484375 -0.453125 C 2.484375 -0.328125 2.441406 -0.21875 2.359375 -0.125 C 2.273438 -0.0390625 2.164062 0 2.03125 0 L 1.8125 0 C 1.675781 0 1.566406 -0.0390625 1.484375 -0.125 C 1.398438 -0.21875 1.359375 -0.328125 1.359375 -0.453125 L 1.359375 -14.75 C 1.359375 -15.03125 1.410156 -15.25 1.515625 -15.40625 C 1.617188 -15.5625 1.851562 -15.640625 2.21875 -15.640625 Z M 3.375 -8.671875 L 8.40625 -8.671875 C 8.519531 -8.671875 8.617188 -8.625 8.703125 -8.53125 C 8.796875 -8.445312 8.84375 -8.34375 8.84375 -8.21875 L 8.84375 -8.015625 C 8.84375 -7.878906 8.796875 -7.769531 8.703125 -7.6875 C 8.617188 -7.613281 8.519531 -7.578125 8.40625 -7.578125 L 3.375 -7.578125 C 3.09375 -7.578125 2.953125 -7.722656 2.953125 -8.015625 L 2.953125 -8.21875 C 2.953125 -8.34375 2.988281 -8.445312 3.0625 -8.53125 C 3.144531 -8.625 3.25 -8.671875 3.375 -8.671875 Z M 3.375 -8.671875 "/></g></g></g><g fill="#3e2470" fill-opacity="1"><g transform="translate(148.779307, 218.720212)"><g><path d="M 1.5625 -7.53125 C 1.5625 -8.707031 1.914062 -9.613281 2.625 -10.25 C 3.34375 -10.894531 4.273438 -11.21875 5.421875 -11.21875 C 6.578125 -11.21875 7.503906 -10.890625 8.203125 -10.234375 C 8.898438 -9.585938 9.25 -8.6875 9.25 -7.53125 L 9.25 -3.640625 C 9.25 -2.484375 8.898438 -1.578125 8.203125 -0.921875 C 7.503906 -0.273438 6.582031 0.046875 5.4375 0.046875 C 4.300781 0.046875 3.367188 -0.273438 2.640625 -0.921875 C 1.921875 -1.578125 1.5625 -2.484375 1.5625 -3.640625 Z M 8.203125 -7.53125 C 8.203125 -8.375 7.941406 -9.023438 7.421875 -9.484375 C 6.898438 -9.941406 6.234375 -10.171875 5.421875 -10.171875 C 4.617188 -10.171875 3.945312 -9.941406 3.40625 -9.484375 C 2.875 -9.023438 2.609375 -8.375 2.609375 -7.53125 L 2.609375 -3.640625 C 2.609375 -2.796875 2.875 -2.144531 3.40625 -1.6875 C 3.945312 -1.226562 4.617188 -1 5.421875 -1 C 6.234375 -1 6.898438 -1.226562 7.421875 -1.6875 C 7.941406 -2.144531 8.203125 -2.796875 8.203125 -3.640625 Z M 8.203125 -7.53125 "/></g></g></g><g fill="#3e2470" fill-opacity="1"><g transform="translate(160.040074, 218.720212)"><g><path d="M 2.015625 -11.21875 L 2.1875 -11.21875 C 2.488281 -11.21875 2.640625 -11.066406 2.640625 -10.765625 L 2.640625 -3.703125 C 2.640625 -2.828125 2.859375 -2.164062 3.296875 -1.71875 C 3.734375 -1.269531 4.351562 -1.046875 5.15625 -1.046875 C 5.96875 -1.046875 6.660156 -1.367188 7.234375 -2.015625 C 7.367188 -2.171875 7.507812 -2.25 7.65625 -2.25 C 7.945312 -2.25 8.09375 -2.085938 8.09375 -1.765625 C 8.09375 -1.628906 8.054688 -1.507812 7.984375 -1.40625 C 7.679688 -0.988281 7.257812 -0.648438 6.71875 -0.390625 C 6.1875 -0.128906 5.625 0 5.03125 0 C 4 0 3.164062 -0.320312 2.53125 -0.96875 C 1.90625 -1.613281 1.59375 -2.519531 1.59375 -3.6875 L 1.59375 -10.765625 C 1.59375 -11.066406 1.734375 -11.21875 2.015625 -11.21875 Z M 8.625 -11.171875 L 8.84375 -11.171875 C 9.125 -11.171875 9.265625 -11.019531 9.265625 -10.71875 L 9.265625 -2.609375 C 9.265625 -2.035156 9.3125 -1.640625 9.40625 -1.421875 C 9.507812 -1.203125 9.703125 -1.054688 9.984375 -0.984375 L 10.234375 -0.921875 C 10.453125 -0.867188 10.5625 -0.769531 10.5625 -0.625 L 10.5625 -0.375 C 10.5625 -0.125 10.414062 0 10.125 0 C 9.394531 0 8.890625 -0.210938 8.609375 -0.640625 C 8.335938 -1.078125 8.203125 -1.742188 8.203125 -2.640625 L 8.203125 -10.71875 C 8.203125 -11.019531 8.34375 -11.171875 8.625 -11.171875 Z M 8.625 -11.171875 "/></g></g></g><g fill="#3e2470" fill-opacity="1"><g transform="translate(171.166787, 218.720212)"><g><path d="M 5.546875 -11.21875 C 6.660156 -11.21875 7.515625 -10.921875 8.109375 -10.328125 C 8.703125 -9.742188 9 -8.882812 9 -7.75 L 9 -0.453125 C 9 -0.148438 8.859375 0 8.578125 0 L 8.40625 0 C 8.101562 0 7.953125 -0.148438 7.953125 -0.453125 L 7.953125 -7.5 C 7.953125 -9.28125 7.140625 -10.171875 5.515625 -10.171875 C 4.671875 -10.171875 3.945312 -9.832031 3.34375 -9.15625 C 3.1875 -9.019531 3.046875 -8.953125 2.921875 -8.953125 C 2.660156 -8.953125 2.519531 -9.101562 2.5 -9.40625 C 2.5 -9.519531 2.53125 -9.640625 2.59375 -9.765625 C 2.90625 -10.191406 3.320312 -10.539062 3.84375 -10.8125 C 4.363281 -11.082031 4.929688 -11.21875 5.546875 -11.21875 Z M 1.765625 -11.15625 L 1.9375 -11.15625 C 2.0625 -11.15625 2.164062 -11.113281 2.25 -11.03125 C 2.34375 -10.945312 2.390625 -10.835938 2.390625 -10.703125 L 2.390625 -0.453125 C 2.390625 -0.316406 2.34375 -0.207031 2.25 -0.125 C 2.164062 -0.0390625 2.0625 0 1.9375 0 L 1.765625 0 C 1.648438 0 1.546875 -0.0390625 1.453125 -0.125 C 1.359375 -0.207031 1.3125 -0.316406 1.3125 -0.453125 L 1.3125 -10.703125 C 1.3125 -10.835938 1.359375 -10.945312 1.453125 -11.03125 C 1.546875 -11.113281 1.648438 -11.15625 1.765625 -11.15625 Z M 1.765625 -11.15625 "/></g></g></g><g fill="#3e2470" fill-opacity="1"><g transform="translate(181.868987, 218.720212)"><g><path d="M 8.671875 -16.359375 L 8.9375 -16.359375 C 9.207031 -16.359375 9.34375 -16.21875 9.34375 -15.9375 L 9.34375 -3.640625 C 9.34375 -2.484375 8.988281 -1.578125 8.28125 -0.921875 C 7.570312 -0.273438 6.644531 0.046875 5.5 0.046875 C 4.351562 0.046875 3.421875 -0.269531 2.703125 -0.90625 C 1.984375 -1.550781 1.625 -2.460938 1.625 -3.640625 L 1.625 -7.53125 C 1.625 -8.675781 1.984375 -9.566406 2.703125 -10.203125 C 3.421875 -10.847656 4.351562 -11.171875 5.5 -11.171875 C 5.976562 -11.171875 6.488281 -11.082031 7.03125 -10.90625 C 7.570312 -10.726562 7.984375 -10.523438 8.265625 -10.296875 L 8.265625 -15.9375 C 8.265625 -16.21875 8.398438 -16.359375 8.671875 -16.359375 Z M 8.265625 -9.078125 C 7.398438 -9.753906 6.519531 -10.09375 5.625 -10.09375 C 4.738281 -10.09375 4.03125 -9.867188 3.5 -9.421875 C 2.96875 -8.984375 2.703125 -8.335938 2.703125 -7.484375 L 2.703125 -3.671875 C 2.703125 -2.804688 2.96875 -2.148438 3.5 -1.703125 C 4.03125 -1.253906 4.695312 -1.03125 5.5 -1.03125 C 6.300781 -1.03125 6.960938 -1.253906 7.484375 -1.703125 C 8.003906 -2.160156 8.265625 -2.816406 8.265625 -3.671875 Z M 8.265625 -9.078125 "/></g></g></g></svg>