<svg xmlns="http://www.w3.org/2000/svg" xmlns:xlink="http://www.w3.org/1999/xlink" width="1080" zoomAndPan="magnify" viewBox="0 0 810 809.999993" height="1080" preserveAspectRatio="xMidYMid meet" version="1.0"><defs><clipPath id="ad3411bd6d"><path d="M 633 96.1875 L 731 96.1875 L 731 194 L 633 194 Z M 633 96.1875 " clip-rule="nonzero"/></clipPath></defs><path fill="#ffffff" d="M 798.136719 712.722656 L 11.863281 712.722656 C 5.21875 712.722656 0 707.503906 0 700.859375 C 0 694.21875 5.21875 689 11.863281 689 L 798.136719 689 C 804.78125 689 810 694.21875 810 700.859375 C 810 707.503906 804.78125 712.722656 798.136719 712.722656 Z M 798.136719 712.722656 " fill-opacity="1" fill-rule="evenodd"/><path fill="#ffffff" d="M 175.570312 712.722656 C 168.929688 712.722656 163.707031 707.503906 163.707031 700.859375 L 163.707031 572.742188 L 93.480469 572.742188 L 93.480469 701.808594 C 93.480469 707.980469 88.261719 713.671875 81.617188 713.671875 C 74.972656 713.671875 69.753906 707.980469 69.753906 701.808594 L 69.753906 560.878906 C 69.753906 554.234375 74.972656 549.015625 81.617188 549.015625 L 175.570312 549.015625 C 182.214844 549.015625 187.433594 554.234375 187.433594 560.878906 L 187.433594 700.859375 C 186.960938 707.503906 181.738281 712.722656 175.570312 712.722656 Z M 175.570312 712.722656 " fill-opacity="1" fill-rule="evenodd"/><path fill="#ffffff" d="M 359.683594 712.722656 C 353.039062 712.722656 347.820312 707.503906 347.820312 700.859375 L 347.820312 429.914062 L 277.59375 429.914062 L 277.59375 700.859375 C 277.59375 707.503906 272.371094 712.722656 265.730469 712.722656 C 259.085938 712.722656 253.867188 707.503906 253.867188 700.859375 L 253.867188 418.523438 C 253.867188 412.355469 259.085938 406.660156 265.730469 406.660156 L 359.683594 406.660156 C 366.328125 406.660156 371.546875 412.355469 371.546875 418.523438 L 371.546875 701.808594 C 371.546875 707.503906 366.328125 712.722656 359.683594 712.722656 Z M 359.683594 712.722656 " fill-opacity="1" fill-rule="evenodd"/><path fill="#ffffff" d="M 544.269531 712.722656 C 537.628906 712.722656 532.40625 707.503906 532.40625 700.859375 L 532.40625 475.941406 L 461.703125 475.941406 L 461.703125 700.859375 C 461.703125 707.503906 456.484375 712.722656 449.84375 712.722656 C 443.199219 712.722656 437.980469 707.503906 437.980469 700.859375 L 437.980469 464.078125 C 437.980469 457.433594 443.199219 452.214844 449.84375 452.214844 L 544.269531 452.214844 C 550.4375 452.214844 556.132812 457.433594 556.132812 464.078125 L 556.132812 700.859375 C 556.132812 707.503906 550.4375 712.722656 544.269531 712.722656 Z M 544.269531 712.722656 " fill-opacity="1" fill-rule="evenodd"/><path fill="#ffffff" d="M 728.382812 712.722656 C 721.738281 712.722656 716.519531 707.503906 716.519531 700.859375 L 716.519531 324.570312 L 645.34375 324.570312 L 645.34375 701.808594 C 645.34375 707.980469 640.121094 713.671875 633.480469 713.671875 C 626.835938 713.671875 621.617188 707.980469 621.617188 701.808594 L 621.617188 313.65625 C 621.617188 307.011719 626.835938 301.792969 633.480469 301.792969 L 727.433594 301.792969 C 734.078125 301.792969 739.296875 307.011719 739.296875 313.65625 L 739.296875 701.808594 C 740.246094 707.503906 735.027344 712.722656 728.382812 712.722656 Z M 728.382812 712.722656 " fill-opacity="1" fill-rule="evenodd"/><path fill="#ffffff" d="M 158.015625 381.984375 C 154.691406 381.984375 151.371094 380.5625 148.523438 377.242188 C 144.726562 372.019531 146.152344 364.902344 150.421875 360.632812 L 276.167969 263.355469 C 281.386719 259.5625 288.980469 260.984375 292.777344 265.253906 C 296.574219 270.949219 295.148438 278.066406 290.878906 281.863281 L 165.132812 379.140625 C 163.234375 381.035156 160.386719 381.984375 158.015625 381.984375 Z M 461.703125 298.945312 C 461.230469 298.945312 459.808594 298.945312 459.332031 298.472656 L 346.871094 270.949219 C 340.703125 269.527344 336.90625 262.882812 338.332031 256.714844 C 339.28125 251.019531 345.921875 247.222656 352.089844 248.171875 L 464.550781 276.167969 C 470.246094 277.117188 474.515625 283.761719 473.09375 289.929688 C 471.195312 295.148438 466.449219 298.945312 461.703125 298.945312 Z M 525.765625 283.761719 C 522.441406 283.761719 519.121094 282.335938 516.273438 279.964844 C 512.476562 275.21875 512.953125 267.628906 517.699219 263.355469 L 645.34375 159.4375 C 650.085938 155.640625 657.679688 156.117188 661.949219 160.859375 C 665.746094 165.605469 665.273438 173.199219 660.527344 177.46875 L 532.882812 281.386719 C 530.984375 283.285156 528.136719 283.761719 525.765625 283.761719 Z M 525.765625 283.761719 " fill-opacity="1" fill-rule="evenodd"/><path fill="#ffffff" d="M 128.121094 441.300781 C 101.546875 441.300781 79.71875 419.472656 79.71875 392.425781 C 79.71875 365.378906 101.546875 343.550781 128.121094 343.550781 C 155.167969 343.550781 176.996094 365.378906 176.996094 392.425781 C 176.996094 419.472656 155.167969 441.300781 128.121094 441.300781 Z M 128.121094 367.277344 C 114.359375 367.277344 102.496094 378.664062 102.496094 392.898438 C 102.496094 406.660156 113.882812 418.523438 128.121094 418.523438 C 142.828125 418.523438 153.742188 407.609375 153.742188 392.898438 C 154.691406 378.664062 142.828125 367.277344 128.121094 367.277344 Z M 128.121094 367.277344 " fill-opacity="1" fill-rule="evenodd"/><path fill="#ffffff" d="M 313.179688 298.945312 C 286.132812 298.945312 264.304688 277.117188 264.304688 250.542969 C 264.304688 223.496094 286.132812 201.667969 313.179688 201.667969 C 340.226562 201.667969 362.054688 223.496094 362.054688 250.542969 C 362.054688 277.117188 340.226562 298.945312 313.179688 298.945312 Z M 313.179688 224.445312 C 298.472656 224.445312 287.558594 235.835938 287.558594 250.542969 C 287.558594 264.78125 299.421875 276.167969 313.179688 276.167969 C 326.941406 276.167969 338.804688 264.78125 338.804688 250.542969 C 338.804688 235.835938 326.941406 224.445312 313.179688 224.445312 Z M 313.179688 224.445312 " fill-opacity="1" fill-rule="evenodd"/><path fill="#ffffff" d="M 497.292969 344.972656 C 470.246094 344.972656 448.894531 323.144531 448.894531 296.574219 C 448.894531 269.527344 470.246094 247.699219 497.292969 247.699219 C 524.339844 247.699219 546.167969 269.527344 546.167969 296.574219 C 546.167969 323.144531 524.339844 344.972656 497.292969 344.972656 Z M 497.292969 270.949219 C 483.53125 270.949219 471.667969 281.863281 471.667969 296.574219 C 471.667969 310.332031 483.058594 322.195312 497.292969 322.195312 C 512.003906 322.195312 522.917969 310.808594 522.917969 296.574219 C 522.917969 282.335938 512.003906 270.949219 497.292969 270.949219 Z M 497.292969 270.949219 " fill-opacity="1" fill-rule="evenodd"/><g clip-path="url(#ad3411bd6d)"><path fill="#ffffff" d="M 681.40625 193.601562 C 654.359375 193.601562 633.003906 172.25 633.003906 145.203125 C 633.003906 118.15625 654.359375 96.328125 681.40625 96.328125 C 708.453125 96.328125 730.28125 118.15625 730.28125 145.203125 C 730.753906 172.25 708.453125 193.601562 681.40625 193.601562 Z M 681.40625 119.578125 C 667.644531 119.578125 655.78125 130.492188 655.78125 145.203125 C 655.78125 159.4375 667.171875 170.824219 681.40625 170.824219 C 696.117188 170.824219 707.03125 158.964844 707.03125 145.203125 C 707.980469 131.441406 696.117188 119.578125 681.40625 119.578125 Z M 681.40625 119.578125 " fill-opacity="1" fill-rule="evenodd"/></g></svg>