<svg xmlns="http://www.w3.org/2000/svg" xmlns:xlink="http://www.w3.org/1999/xlink" width="1080" zoomAndPan="magnify" viewBox="0 0 810 809.999993" height="1080" preserveAspectRatio="xMidYMid meet" version="1.0"><defs><clipPath id="a905d5a112"><path d="M 1 16.199219 L 537 16.199219 L 537 793.949219 L 1 793.949219 Z M 1 16.199219 " clip-rule="nonzero"/></clipPath></defs><path fill="#ffffff" d="M 808.316406 386.175781 C 808.316406 382.949219 807.242188 379.722656 806.167969 376.496094 C 805.089844 375.421875 804.015625 373.269531 802.941406 372.195312 C 801.863281 371.121094 801.863281 370.042969 800.789062 368.96875 L 664.199219 231.304688 C 654.519531 221.625 639.460938 221.625 629.78125 231.304688 C 620.101562 240.984375 620.101562 259.265625 629.78125 268.945312 L 725.503906 367.894531 L 249.050781 367.894531 C 236.144531 367.894531 224.3125 378.648438 224.3125 392.628906 C 224.3125 405.535156 235.070312 417.367188 249.050781 417.367188 L 725.503906 417.367188 L 629.78125 510.9375 C 620.101562 520.617188 620.101562 534.597656 629.78125 544.277344 C 639.460938 553.957031 654.519531 552.882812 664.199219 543.203125 L 801.863281 405.535156 C 802.941406 404.460938 804.015625 403.386719 804.015625 401.234375 C 805.089844 400.160156 806.167969 399.082031 806.167969 396.933594 C 808.316406 392.628906 808.316406 389.402344 808.316406 386.175781 Z M 808.316406 386.175781 " fill-opacity="1" fill-rule="nonzero"/><g clip-path="url(#a905d5a112)"><path fill="#ffffff" d="M 487.816406 556.109375 L 487.816406 745.398438 L 50.078125 745.398438 L 50.078125 64.597656 L 487.816406 64.597656 L 487.816406 242.058594 L 536.210938 242.058594 L 536.210938 64.597656 C 536.210938 37.710938 515.777344 16.199219 491.042969 16.199219 L 46.851562 16.199219 C 22.117188 16.199219 1.683594 37.710938 1.683594 64.597656 L 1.683594 745.398438 C 1.683594 772.289062 22.117188 793.796875 46.851562 793.796875 L 491.042969 793.796875 C 515.777344 793.796875 536.210938 772.289062 536.210938 745.398438 L 536.210938 556.109375 Z M 487.816406 556.109375 " fill-opacity="1" fill-rule="nonzero"/></g></svg>