<svg xmlns="http://www.w3.org/2000/svg" xmlns:xlink="http://www.w3.org/1999/xlink" width="500" zoomAndPan="magnify" viewBox="0 0 375 374.999991" height="500" preserveAspectRatio="xMidYMid meet" version="1.0"><defs><clipPath id="67d25e4923"><path d="M 17.25 0 L 357.75 0 C 362.324219 0 366.710938 1.816406 369.949219 5.050781 C 373.183594 8.289062 375 12.675781 375 17.25 L 375 357.75 C 375 362.324219 373.183594 366.710938 369.949219 369.949219 C 366.710938 373.183594 362.324219 375 357.75 375 L 17.25 375 C 12.675781 375 8.289062 373.183594 5.050781 369.949219 C 1.816406 366.710938 0 362.324219 0 357.75 L 0 17.25 C 0 12.675781 1.816406 8.289062 5.050781 5.050781 C 8.289062 1.816406 12.675781 0 17.25 0 Z M 17.25 0 " clip-rule="nonzero"/></clipPath><clipPath id="7ad9c078e0"><path d="M 146.253906 211 L 341.453125 211 L 341.453125 309.949219 L 146.253906 309.949219 Z M 146.253906 211 " clip-rule="nonzero"/></clipPath><clipPath id="0aa063f469"><path d="M 33.449219 174 L 161 174 L 161 257 L 33.449219 257 Z M 33.449219 174 " clip-rule="nonzero"/></clipPath></defs><g clip-path="url(#67d25e4923)"><rect x="-37.5" width="450" fill="#97939f" y="-37.499999" height="449.999989" fill-opacity="1"/></g><path fill="#3e2470" d="M 229.617188 174.359375 C 202.945312 176.21875 201.554688 177.628906 199.957031 204.3125 C 198.097656 177.644531 196.6875 176.25 170.003906 174.65625 C 196.671875 172.796875 198.066406 171.386719 199.664062 144.703125 C 201.523438 171.371094 202.929688 172.765625 229.617188 174.359375 " fill-opacity="1" fill-rule="nonzero"/><path fill="#794cd4" d="M 177.082031 135.855469 C 164.398438 136.929688 163.746094 137.609375 163.175781 150.328125 C 162.101562 137.644531 161.421875 136.992188 148.703125 136.421875 C 161.386719 135.34375 162.039062 134.664062 162.609375 121.949219 C 163.6875 134.632812 164.367188 135.285156 177.082031 135.855469 " fill-opacity="1" fill-rule="nonzero"/><path fill="#794cd4" d="M 276.207031 150.042969 C 263.523438 151.121094 262.871094 151.800781 262.300781 164.519531 C 261.222656 151.835938 260.542969 151.179688 247.828125 150.613281 C 260.511719 149.535156 261.164062 148.855469 261.734375 136.136719 C 262.808594 148.824219 263.492188 149.476562 276.207031 150.042969 " fill-opacity="1" fill-rule="nonzero"/><path fill="#3e2470" d="M 268.765625 130.574219 C 265.132812 110.71875 256.417969 84.761719 233.949219 79.726562 C 203.632812 72.933594 177.722656 104.042969 146.476562 96.6875 C 130.273438 92.875 117.527344 78.21875 100.765625 76.921875 C 82.375 75.5 68.070312 93.296875 64.207031 109.726562 C 59.515625 129.660156 69.679688 160.304688 74.652344 179.523438 C 66.507812 160.941406 54.886719 138.003906 57.535156 109.929688 C 59.535156 88.742188 77.246094 67.179688 100.050781 67.492188 C 118.355469 67.746094 131.453125 82.6875 148.472656 86.917969 C 178.121094 94.289062 204.371094 65.027344 234.433594 72.65625 C 259.597656 79.039062 268.308594 107.601562 268.765625 130.574219 " fill-opacity="1" fill-rule="nonzero"/><path fill="#794cd4" d="M 223.085938 243.207031 C 223.085938 255.28125 213.296875 265.070312 201.222656 265.070312 C 189.148438 265.070312 179.359375 255.28125 179.359375 243.207031 C 179.359375 231.132812 189.148438 221.34375 201.222656 221.34375 C 213.296875 221.34375 223.085938 231.132812 223.085938 243.207031 " fill-opacity="1" fill-rule="nonzero"/><path fill="#4e3089" d="M 138.382812 204.109375 C 138.382812 214.894531 129.636719 223.636719 118.851562 223.636719 C 108.066406 223.636719 99.324219 214.894531 99.324219 204.109375 C 99.324219 193.324219 108.066406 184.578125 118.851562 184.578125 C 129.636719 184.578125 138.382812 193.324219 138.382812 204.109375 " fill-opacity="1" fill-rule="nonzero"/><path fill="#97939f" d="M 161.542969 236.027344 C 161.539062 235.027344 161.496094 233.949219 161.40625 232.820312 C 161.488281 233.882812 161.527344 234.960938 161.542969 236.027344 " fill-opacity="1" fill-rule="nonzero"/><g clip-path="url(#7ad9c078e0)"><path fill="#794cd4" d="M 270.273438 255.589844 C 243.527344 253.128906 223.550781 263.664062 206.269531 283.535156 C 199.105469 291.769531 187.722656 307.050781 176.101562 297.058594 C 171.292969 292.921875 169.851562 287.535156 169.488281 281.699219 C 168.40625 264.265625 171.550781 246.746094 170.785156 229.152344 C 170.160156 214.8125 156.546875 207.636719 146.457031 212.558594 C 155.269531 214.539062 159.0625 221.097656 160.597656 227.574219 C 161.015625 229.179688 161.269531 230.976562 161.40625 232.820312 C 161.496094 233.949219 161.539062 235.027344 161.542969 236.027344 C 161.613281 240.773438 161.152344 245.304688 161.097656 247.257812 C 160.710938 260.3125 157.449219 274.925781 160.125 287.890625 C 162.40625 298.941406 171.550781 309.441406 183.308594 309.929688 C 197.332031 310.511719 205.875 297.695312 213.824219 288.160156 C 230.039062 268.699219 248.183594 260.132812 273.796875 261.5625 C 296.707031 262.84375 318.902344 265.089844 341.453125 259.28125 C 317.167969 262.613281 294.339844 257.804688 270.273438 255.589844 " fill-opacity="1" fill-rule="nonzero"/></g><g clip-path="url(#0aa063f469)"><path fill="#4e3089" d="M 146.457031 212.558594 C 143.007812 214.238281 139.972656 217.324219 138.003906 222.023438 C 135.0625 229.046875 140.554688 243.621094 134.347656 247.925781 C 128.945312 251.675781 116.0625 242.957031 111.566406 239.367188 C 96.898438 227.660156 91.429688 209.003906 77.480469 196.488281 C 65.164062 185.4375 49.949219 177.253906 33.550781 174.507812 C 53.554688 180.285156 73.828125 194.058594 84.53125 212.15625 C 93.160156 226.746094 99.59375 241.859375 114.847656 250.945312 C 122.597656 255.558594 134.824219 260.785156 141.914062 252.476562 C 148.476562 244.785156 140.515625 226.496094 150.441406 222.148438 C 156.457031 219.515625 159.3125 222.664062 160.597656 227.574219 C 159.0625 221.097656 155.269531 214.539062 146.457031 212.558594 " fill-opacity="1" fill-rule="nonzero"/></g></svg>