<svg xmlns="http://www.w3.org/2000/svg" xmlns:xlink="http://www.w3.org/1999/xlink" width="1080" zoomAndPan="magnify" viewBox="0 0 810 809.999993" height="1080" preserveAspectRatio="xMidYMid meet" version="1.0"><path fill="#ffffff" d="M 323.535156 288.066406 C 332 288.066406 338.90625 281.222656 338.90625 272.699219 L 338.90625 257.328125 C 338.90625 248.863281 332 241.957031 323.535156 241.957031 C 315.070312 241.957031 308.164062 248.863281 308.164062 257.328125 L 308.164062 272.699219 C 308.164062 281.222656 315.070312 288.066406 323.535156 288.066406 " fill-opacity="1" fill-rule="nonzero"/><path fill="#ffffff" d="M 415.753906 288.066406 C 424.222656 288.066406 431.125 281.222656 431.125 272.699219 L 431.125 257.328125 C 431.125 248.863281 424.222656 241.957031 415.753906 241.957031 C 407.289062 241.957031 400.386719 248.863281 400.386719 257.328125 L 400.386719 272.699219 C 400.386719 281.222656 407.289062 288.066406 415.753906 288.066406 " fill-opacity="1" fill-rule="nonzero"/><path fill="#ffffff" d="M 323.535156 334.179688 C 323.535156 342.703125 330.441406 349.546875 338.90625 349.546875 L 400.386719 349.546875 C 408.851562 349.546875 415.753906 342.703125 415.753906 334.179688 C 415.753906 325.710938 408.851562 318.808594 400.386719 318.808594 L 338.90625 318.808594 C 330.441406 318.808594 323.535156 325.710938 323.535156 334.179688 " fill-opacity="1" fill-rule="nonzero"/><path fill="#ffffff" d="M 646.304688 779.910156 L 569.457031 779.910156 L 569.457031 656.949219 L 646.304688 656.949219 Z M 200.574219 749.167969 L 538.714844 749.167969 L 538.714844 779.910156 L 200.574219 779.910156 Z M 108.355469 595.46875 C 108.355469 558.363281 134.773438 527.324219 169.835938 520.179688 L 169.835938 779.910156 L 108.355469 779.910156 Z M 431.125 487.878906 C 431.125 521.800781 403.566406 549.359375 369.644531 549.359375 C 335.722656 549.359375 308.164062 521.800781 308.164062 487.878906 Z M 538.714844 641.519531 L 538.714844 641.578125 L 200.574219 641.578125 L 200.574219 514.835938 L 277.664062 492.859375 C 280.246094 541.371094 320.472656 580.097656 369.644531 580.097656 C 417.855469 580.097656 457.484375 542.933594 461.445312 495.683594 L 538.714844 528.765625 Z M 594.3125 334.117188 L 615.566406 334.117188 L 615.566406 487.816406 C 615.566406 488.117188 615.6875 488.359375 615.746094 488.597656 C 615.746094 488.839844 615.625 489.140625 615.625 489.378906 L 629.316406 626.148438 L 569.457031 626.148438 L 569.457031 487.816406 C 569.457031 487.335938 569.214844 486.855469 569.15625 486.378906 C 569.09375 485.835938 569.277344 485.355469 569.15625 484.816406 L 554.804688 413.1875 Z M 200.574219 672.316406 L 538.714844 672.316406 L 538.714844 718.429688 L 200.574219 718.429688 Z M 277.425781 302.957031 L 277.425781 220.464844 C 311.707031 211.578125 342.746094 192.066406 365.742188 164.628906 L 376.851562 164.628906 C 399.125 191.164062 428.902344 210.136719 461.867188 219.503906 L 461.867188 304.457031 C 461.867188 311.785156 468.050781 318.328125 475.253906 319.769531 C 476.09375 319.949219 477.054688 320.128906 477.117188 320.070312 C 482.878906 322.109375 487.5625 326.253906 490.265625 331.777344 C 492.90625 337.359375 493.324219 343.605469 491.285156 349.367188 L 486.242188 364.015625 C 482.097656 375.964844 468.890625 382.269531 456.824219 378.125 C 454.058594 377.226562 451.480469 375.664062 449.078125 373.5625 C 443.3125 368.519531 434.667969 368.519531 428.902344 373.5625 C 423.320312 378.367188 416.714844 382.628906 409.03125 386.292969 C 384.957031 398.058594 354.996094 398.179688 330.078125 386.171875 C 297.597656 370.863281 277.425781 338.921875 277.425781 302.957031 Z M 215.945312 249.222656 C 215.945312 236.496094 226.273438 226.167969 239 226.167969 L 246.683594 226.167969 L 246.683594 272.277344 L 239 272.277344 C 226.273438 272.277344 215.945312 261.890625 215.945312 249.222656 Z M 249.746094 152.199219 C 249.746094 85.195312 304.203125 30.738281 371.207031 30.738281 C 438.148438 30.738281 492.605469 85.195312 492.605469 152.199219 L 492.605469 194.527344 C 454.902344 190.324219 419.839844 170.75 396.542969 140.492188 L 383.394531 123.261719 C 380.453125 119.476562 375.890625 117.257812 371.085938 117.257812 C 366.285156 117.316406 361.78125 119.539062 358.898438 123.378906 L 347.011719 139.230469 C 323.65625 170.390625 288.113281 190.382812 249.746094 194.585938 Z M 500.289062 272.277344 L 492.605469 272.277344 L 492.605469 226.167969 L 500.289062 226.167969 C 513.019531 226.167969 523.34375 236.496094 523.34375 249.222656 C 523.34375 261.890625 513.019531 272.277344 500.289062 272.277344 Z M 338.90625 421.894531 C 348.871094 424.476562 359.078125 425.917969 369.644531 425.917969 C 380.273438 425.917969 390.480469 424.476562 400.386719 421.894531 L 400.386719 456.65625 L 338.90625 456.65625 Z M 677.046875 795.277344 L 677.046875 641.578125 C 677.046875 633.113281 670.140625 626.207031 661.675781 626.207031 L 660.234375 626.207031 L 646.304688 487.097656 L 646.304688 318.746094 C 646.304688 310.28125 639.402344 303.378906 630.9375 303.378906 L 584.824219 303.378906 C 579 303.378906 573.660156 306.679688 571.078125 311.902344 L 524.964844 404.125 C 523.464844 407.183594 522.984375 410.667969 523.644531 414.03125 L 538.714844 489.378906 L 538.714844 495.324219 L 452.558594 458.398438 C 450.699219 457.617188 448.65625 457.136719 446.496094 457.136719 L 431.125 457.136719 L 431.125 408.925781 C 433.949219 407.304688 436.949219 405.863281 439.53125 404.0625 C 441.933594 405.324219 444.394531 406.40625 446.855469 407.246094 C 474.953125 416.910156 505.574219 402.023438 515.242188 374.105469 L 520.34375 359.453125 C 525.027344 345.945312 524.1875 331.355469 517.941406 318.386719 C 514.941406 312.261719 510.859375 306.980469 505.875 302.417969 C 532.890625 299.59375 554.085938 276.960938 554.085938 249.222656 C 554.085938 227.847656 541.476562 209.476562 523.34375 200.832031 L 523.34375 152.199219 C 523.34375 68.265625 455.082031 0 371.207031 0 C 287.273438 0 219.007812 68.265625 219.007812 152.199219 L 219.007812 199.328125 C 199.253906 207.316406 185.207031 226.585938 185.207031 249.222656 C 185.207031 278.882812 209.339844 303.015625 239 303.015625 L 246.683594 303.015625 C 246.683594 347.566406 270.160156 387.253906 308.164062 409.046875 L 308.164062 457.136719 L 292.796875 457.136719 C 291.355469 457.136719 289.972656 457.378906 288.59375 457.738281 L 182.5625 488.058594 C 124.445312 489.4375 77.613281 537.109375 77.613281 595.46875 L 77.613281 795.277344 C 77.613281 803.804688 84.519531 810.648438 92.984375 810.648438 L 661.675781 810.648438 C 670.140625 810.648438 677.046875 803.804688 677.046875 795.277344 " fill-opacity="1" fill-rule="nonzero"/><path fill="#ffffff" d="M 584.824219 195.847656 L 584.824219 272.699219 L 615.566406 272.699219 L 615.566406 195.847656 L 584.824219 195.847656 " fill-opacity="1" fill-rule="nonzero"/><path fill="#ffffff" d="M 713.550781 214.640625 L 636.699219 276.121094 L 655.910156 300.136719 L 732.761719 238.65625 L 713.550781 214.640625 " fill-opacity="1" fill-rule="nonzero"/></svg>