<svg xmlns="http://www.w3.org/2000/svg" xmlns:xlink="http://www.w3.org/1999/xlink" width="1080" zoomAndPan="magnify" viewBox="0 0 810 809.999993" height="1080" preserveAspectRatio="xMidYMid meet" version="1.0"><path fill="#ffffff" d="M 711.90625 396.589844 L 711.90625 156.914062 C 711.90625 138.242188 704.628906 120.6875 691.417969 107.476562 C 678.402344 94.460938 660.386719 87.003906 641.980469 87.003906 L 549.136719 87.003906 L 549.136719 50.511719 C 549.136719 42.800781 542.882812 36.546875 535.171875 36.546875 C 527.464844 36.546875 521.207031 42.800781 521.207031 50.511719 L 521.207031 87.003906 L 370.085938 87.003906 L 370.085938 50.511719 C 370.085938 42.800781 363.828125 36.546875 356.121094 36.546875 C 348.410156 36.546875 342.15625 42.800781 342.15625 50.511719 L 342.15625 87.003906 L 191.035156 87.003906 L 191.035156 50.511719 C 191.035156 42.800781 184.777344 36.546875 177.070312 36.546875 C 169.359375 36.546875 163.101562 42.800781 163.101562 50.511719 L 163.101562 87.003906 L 70.261719 87.003906 C 51.855469 87.003906 33.839844 94.472656 20.824219 107.476562 C 7.609375 120.6875 0.335938 138.242188 0.335938 156.914062 L 0.335938 576.464844 C 0.335938 595.136719 7.609375 612.691406 20.824219 625.90625 C 33.839844 638.921875 51.855469 646.378906 70.261719 646.378906 L 419.902344 646.378906 C 450.234375 720.03125 522.703125 772.066406 607.164062 772.066406 C 718.820312 772.066406 809.664062 681.222656 809.664062 569.566406 C 809.664062 496.261719 770.394531 432.132812 711.90625 396.589844 Z M 607.164062 367.066406 C 583.96875 367.066406 561.761719 371.1875 540.996094 378.394531 L 540.996094 292.074219 L 683.976562 292.074219 L 683.976562 382.289062 C 660.261719 372.527344 634.355469 367.066406 607.164062 367.066406 Z M 450.625 441.292969 L 370.085938 441.292969 L 370.085938 292.074219 L 513.066406 292.074219 L 513.066406 390.402344 C 489.003906 403.097656 467.746094 420.414062 450.625 441.292969 Z M 199.175781 441.292969 L 199.175781 292.074219 L 342.15625 292.074219 L 342.15625 441.292969 Z M 342.15625 469.226562 L 342.15625 618.445312 L 199.175781 618.445312 L 199.175781 469.226562 Z M 28.265625 292.074219 L 171.246094 292.074219 L 171.246094 441.292969 L 28.265625 441.292969 Z M 40.570312 127.222656 C 48.390625 119.402344 59.199219 114.933594 70.261719 114.933594 L 163.101562 114.933594 L 163.101562 149.273438 C 163.101562 156.984375 169.359375 163.242188 177.070312 163.242188 C 184.777344 163.242188 191.035156 156.984375 191.035156 149.273438 L 191.035156 114.933594 L 342.15625 114.933594 L 342.15625 149.273438 C 342.15625 156.984375 348.410156 163.242188 356.121094 163.242188 C 363.828125 163.242188 370.085938 156.984375 370.085938 149.273438 L 370.085938 114.933594 L 521.207031 114.933594 L 521.207031 149.273438 C 521.207031 156.984375 527.464844 163.242188 535.171875 163.242188 C 542.882812 163.242188 549.136719 156.984375 549.136719 149.273438 L 549.136719 114.933594 L 641.980469 114.933594 C 653.042969 114.933594 663.851562 119.417969 671.671875 127.222656 C 679.605469 135.15625 683.976562 145.699219 683.976562 156.914062 L 683.976562 264.140625 L 28.265625 264.140625 L 28.265625 156.914062 C 28.265625 145.699219 32.636719 135.15625 40.570312 127.222656 Z M 40.570312 606.144531 C 32.636719 598.210938 28.265625 587.667969 28.265625 576.453125 L 28.265625 469.210938 L 171.246094 469.210938 L 171.246094 618.433594 L 70.261719 618.433594 C 59.199219 618.433594 48.375 613.964844 40.570312 606.144531 Z M 370.085938 618.433594 L 370.085938 469.226562 L 431.507812 469.226562 C 414.523438 498.847656 404.664062 533.046875 404.664062 569.566406 C 404.664062 586.453125 406.96875 602.761719 410.878906 618.445312 L 370.085938 618.445312 Z M 607.164062 744.121094 C 510.902344 744.121094 432.597656 665.816406 432.597656 569.554688 C 432.597656 473.289062 510.902344 394.984375 607.164062 394.984375 C 703.429688 394.984375 781.734375 473.289062 781.734375 569.554688 C 781.734375 665.816406 703.429688 744.121094 607.164062 744.121094 Z M 607.164062 744.121094 " fill-opacity="1" fill-rule="nonzero"/><path fill="#ffffff" d="M 672.257812 553.480469 L 621.128906 553.480469 L 621.128906 474.015625 C 621.128906 466.292969 614.875 460.050781 607.164062 460.050781 C 599.457031 460.050781 593.199219 466.292969 593.199219 474.015625 L 593.199219 567.445312 C 593.199219 575.167969 599.457031 581.410156 607.164062 581.410156 L 672.257812 581.410156 C 679.96875 581.410156 686.222656 575.167969 686.222656 567.445312 C 686.222656 559.722656 679.96875 553.480469 672.257812 553.480469 Z M 672.257812 553.480469 " fill-opacity="1" fill-rule="nonzero"/></svg>