<svg xmlns="http://www.w3.org/2000/svg" shape-rendering="geometricPrecision" text-rendering="geometricPrecision" image-rendering="optimizeQuality" fill-rule="evenodd" clip-rule="evenodd" viewBox="0 0 512 508.45"><path fill="#ffffff" fill-rule="nonzero" d="M248.75 32.98C279.86 12.01 325.49-.76 369.08.04c40.96.74 80.51 13.37 105.55 42.21 8.26 9.5 14.86 20.46 20.13 32.81 5.18 12.13 9.07 25.51 11.98 40.1 5.67 28.47 6.5 60.19 3.71 92.89-3.08 36.03-10.54 73.33-20.72 108.82-7.4 25.79-29.36 89.95-57.64 136.02-18.59 30.27-40.4 53.19-64.01 54.69-11.5.74-22.05-3.65-31.7-12.95-8.46-8.17-16.23-20.34-23.34-36.35l-.2-.39-9.21-23.33c-1.29-3.28-2.88-7.64-4.61-12.38-8.88-24.36-21.92-60.13-40.76-64.68-15.77-3.8-28.37 27.21-36.13 46.29-.94 2.32-1.82 4.48-3.44 8.22-.85 1.95-2.73 6.59-4.84 11.81-12.59 31.08-33.9 83.7-64.24 84.61-10.48.32-20.75-4.25-30.81-13.48-8.81-8.09-17.67-20.02-26.57-35.59-5.8-10.03-11.93-21.79-18.21-34.89-6-12.55-12.12-26.38-18.18-41.18-11.12-27.19-24.47-62.25-35.24-99.79C9.71 245.5 1.3 204.55.12 165.71c-.73-24.27 1.78-47.83 7.97-69.19C14 76.14 23.26 57.76 36.24 42.62 61.71 12.95 95.24.99 130.43.25c40.8-.85 83.74 13.58 118.32 32.73zM48.68 157.11c4.25-24.61 12.94-47.5 27.21-66.51 13.03-17.35 30.57-31.33 53.43-40.26l7.28 18.63c-19.22 7.51-33.9 19.17-44.74 33.61-12.21 16.26-19.71 36.22-23.45 57.9l-19.73-3.37zm385.21 42.84h-.97c0-8-2.99-14.98-8.96-20.95-5.97-5.97-12.95-8.95-20.94-8.95v-.98c7.99 0 14.97-2.99 20.94-8.97 5.97-6 8.96-12.98 8.96-20.94h.97c0 7.99 2.99 14.97 8.96 20.94 5.97 5.97 12.95 8.96 20.95 8.96v.97c-8 0-14.98 2.99-20.95 8.96-5.97 5.98-8.96 12.96-8.96 20.96zm-70.26 21.39h-.79c0-6.36-2.38-11.94-7.14-16.69-4.75-4.76-10.31-7.15-16.69-7.15v-.78c6.36 0 11.94-2.39 16.69-7.14 4.76-4.78 7.14-10.33 7.14-16.68h.79c0 6.36 2.38 11.94 7.14 16.69 4.75 4.76 10.31 7.15 16.69 7.15v.78c-6.36 0-11.94 2.39-16.69 7.14-4.77 4.74-7.14 10.3-7.14 16.68zm17.42-70.8h-1.52c0-12.44-4.66-23.34-13.97-32.65-9.32-9.32-20.19-13.97-32.66-13.97v-1.52c12.45 0 23.34-4.66 32.66-13.99 9.31-9.34 13.97-20.22 13.97-32.64h1.52c0 12.45 4.66 23.35 13.97 32.66 9.31 9.31 20.19 13.97 32.65 13.97v1.52c-12.45 0-23.34 4.66-32.65 13.97-9.31 9.31-13.97 20.21-13.97 32.65zM266.08 45.6c19.88 14.25 26.53 21.09 38.21 36.29-15.64-5.09-34.91-13.5-50.46-22.64-3.22-1.9-6.34-3.91-9.57-5.79-32.83-19.16-74.49-34.07-113.44-33.25-29.82.63-58.12 10.62-79.39 35.4-11.08 12.92-19.03 28.78-24.16 46.47-5.6 19.31-7.86 40.8-7.19 63.08 1.11 36.77 9.24 76.1 19.78 112.86 10.67 37.22 23.67 71.4 34.45 97.76 5.82 14.22 11.79 27.69 17.72 40.08 5.93 12.39 11.83 23.67 17.49 33.48l.04.08c7.86 13.76 15.46 24.1 22.78 30.82 6.1 5.59 11.69 8.39 16.72 8.24 17.21-.52 35.46-45.57 46.24-72.18 1.61-3.99 3.05-7.53 5.07-12.2.41-.93 1.74-4.21 3.21-7.83 10.22-25.15 26.84-66.02 59.38-58.18 29.25 7.06 44.48 48.83 54.85 77.28 1.54 4.22 2.95 8.1 4.45 11.91l9.21 23.33-.02.01c5.97 13.36 12.23 23.28 18.79 29.61 5.44 5.25 10.97 7.75 16.59 7.4 15.89-1.02 32.75-19.99 48.19-45.15 27.11-44.15 48.29-106.14 55.45-131.09 9.85-34.33 17.06-70.32 20.02-104.98 2.64-30.95 1.89-60.79-3.4-87.34-2.67-13.4-6.16-25.5-10.72-36.19-4.48-10.47-10-19.68-16.85-27.56-20.93-24.1-55.03-34.68-90.75-35.33-36.91-.67-75.16 9.16-102.69 25.61z"/></svg>